<svg width="55" height="55" viewBox="0 0 55 55" fill="none" xmlns="http://www.w3.org/2000/svg">
<rect width="55" height="55" rx="5" fill="#E64646"/>
<path d="M34 21L32.8714 34.7052C32.7646 36.0019 31.681 37 30.3798 37H23.6202C22.319 37 21.2354 36.0019 21.1286 34.7052L20 21H34ZM27 23C26.7239 23 26.5 23.2239 26.5 23.5V34C26.5 34.2761 26.7239 34.5 27 34.5C27.2761 34.5 27.5 34.2761 27.5 34V23.5C27.5 23.2239 27.2761 23 27 23ZM30 23C29.7204 23 29.4904 23.2202 29.4783 23.4995L29.0217 34.0005L29.0213 34.0213C29.0213 34.2857 29.2356 34.5 29.5 34.5C29.7796 34.5 30.0096 34.2798 30.0217 34.0005L30.4783 23.4995L30.4787 23.4787C30.4787 23.2143 30.2644 23 30 23ZM24 23L23.9792 23.0005C23.7151 23.0119 23.5102 23.2354 23.5217 23.4995L23.9783 34.0005C23.9904 34.2798 24.2204 34.5 24.5 34.5C24.5069 34.5 24.5139 34.4998 24.5208 34.4995C24.7849 34.4881 24.9898 34.2646 24.9783 34.0005L24.5217 23.4995C24.5096 23.2202 24.2796 23 24 23ZM28 16.5C29.0252 16.5 29.9063 17.1171 30.2921 18.0002L34 18C34.5523 18 35 18.4477 35 19V19.75C35 19.8881 34.8881 20 34.75 20H19.25C19.1119 20 19 19.8881 19 19.75V19C19 18.4477 19.4477 18 20 18L23.7079 18.0002C24.0937 17.1171 24.9748 16.5 26 16.5H28Z" fill="white"/>
</svg>
