<svg width="20" height="20" viewBox="0 0 20 20" fill="none" xmlns="http://www.w3.org/2000/svg">
<path d="M10 0C12.1927 0 13.6085 1.09609 13.9851 3.13669C13.989 3.15797 13.9966 3.17922 13.9995 3.2004L19.1 3.2C19.5971 3.2 20 3.60294 20 4.1C20 4.55882 19.6567 4.93745 19.2129 4.99299L19.1 5H17.999L16.6192 17.4216C16.4619 18.8309 15.3118 19.9106 13.9131 19.9947L13.7371 20H6.26294C4.78576 20 3.54463 18.8897 3.38082 17.4216L1.995 5H0.9C0.402944 5 0 4.59706 0 4.1C0 3.64118 0.343337 3.26255 0.787106 3.20701L0.9 3.2L6.01227 3.20104C6.00978 3.20069 6.00727 3.20034 6.00476 3.2C6.00722 3.1766 6.0106 3.16021 6.01494 3.13669C6.39148 1.09609 7.80726 0 10 0ZM16.193 5H3.804L5.16972 17.222C5.22298 17.6993 5.57646 18.0769 6.02922 18.175L6.14436 18.1937L6.26294 18.2H13.7371C14.2974 18.2 14.7681 17.7788 14.8303 17.222L16.193 5ZM10 6.5C10.4588 6.5 10.8375 6.84334 10.893 7.28711L10.9 7.4V15.6C10.9 16.0971 10.4971 16.5 10 16.5C9.54118 16.5 9.16255 16.1567 9.10701 15.7129L9.1 15.6V7.4C9.1 6.90294 9.50294 6.5 10 6.5ZM13.4548 6.50167C13.9127 6.52959 14.2698 6.89534 14.2982 7.34166L14.2983 7.45478L13.7983 15.6548C13.7681 16.1509 13.3414 16.5286 12.8452 16.4983C12.3873 16.4704 12.0302 16.1047 12.0018 15.6583L12.0017 15.5452L12.5017 7.34522C12.5319 6.84909 12.9586 6.47142 13.4548 6.50167ZM7.48446 7.23297L7.49833 7.34522L7.99833 15.5452C8.02858 16.0414 7.65091 16.4681 7.15478 16.4983C6.69681 16.5263 6.29798 16.2066 6.21554 15.767L6.20167 15.6548L5.70167 7.45478C5.67142 6.95864 6.04909 6.53192 6.54522 6.50167C7.00319 6.47374 7.40202 6.7934 7.48446 7.23297ZM10 1.8C8.75778 1.8 8.1075 2.22659 7.84486 3.19782L7.834 3.2L12.1548 3.20087C12.155 3.20017 12.1552 3.19947 12.1554 3.19877C11.8929 2.22686 11.2426 1.8 10 1.8Z" fill="#E64646"/>
</svg>
