<svg width="21" height="21" viewBox="0 0 21 21" fill="none" xmlns="http://www.w3.org/2000/svg">
<path d="M16 9.26171C16 8.70942 16.4477 8.26171 17 8.26171C17.5128 8.26171 17.9355 8.64775 17.9933 9.14509L18 9.26171V14.5642C18 16.5453 17.7937 17.2638 17.4064 17.988C17.019 18.7123 16.4506 19.2807 15.7263 19.6681C15.002 20.0554 14.2836 20.2617 12.3025 20.2617H5.69752C3.71637 20.2617 2.99796 20.0554 2.27368 19.6681C1.5494 19.2807 0.980977 18.7123 0.593628 17.988C0.206279 17.2638 0 16.5453 0 14.5642V7.95923C0 5.97808 0.206279 5.25967 0.593628 4.53539C0.980977 3.81111 1.5494 3.24269 2.27368 2.85534C2.99796 2.46799 3.71637 2.26171 5.69752 2.26171H11V4.26171H5.57459C4.06179 4.26171 3.6011 4.35067 3.13086 4.60216C2.78422 4.78754 2.52584 5.04593 2.34045 5.39257C2.10294 5.83668 2.01039 6.27228 2.00084 7.59373L2 14.6871C2 16.1999 2.08896 16.6606 2.34045 17.1308C2.52584 17.4775 2.78422 17.7359 3.13086 17.9213C3.6011 18.1727 4.06179 18.2617 5.57459 18.2617H12.4254C13.9382 18.2617 14.3989 18.1727 14.8691 17.9213C15.2158 17.7359 15.4742 17.4775 15.6596 17.1308C15.911 16.6606 16 16.1999 16 14.6871V9.26171ZM16.3882 2.10354L18.1047 3.92263C15.6009 6.42641 11.2651 10.7622 10.4926 11.5347C9.43198 12.5953 7.48744 13.4792 7.13388 13.1257C6.78033 12.7721 7.66421 10.8276 8.72487 9.76691L8.86795 9.62384C9.93696 8.55483 14.0176 4.47415 16.3882 2.10354ZM11 2.26171C11.5523 2.26171 12 2.70942 12 3.26171C12 3.77454 11.614 4.19722 11.1166 4.25498L11 4.26171V2.26171ZM19.8618 0.397748C20.3921 0.928078 20.3921 1.63518 19.8618 2.16551L19.5797 2.44767C19.4674 2.55996 19.3272 2.70009 19.1636 2.86372L17.3958 1.09595C17.764 0.7278 18.0132 0.478581 18.094 0.397748C18.6244 -0.132583 19.3315 -0.132583 19.8618 0.397748Z" fill="black"/>
</svg>
