<svg width="55" height="55" viewBox="0 0 55 55" fill="none" xmlns="http://www.w3.org/2000/svg">
<rect width="55" height="55" rx="5" fill="#3F8AE0"/>
<path d="M29.188 21.2726L32.727 24.8116L24.1042 33.4355C23.3309 34.2087 22.3795 34.7801 21.3337 35.0994L18.4312 35.9855C18.2549 36.0393 18.0684 35.94 18.0145 35.7637C17.9952 35.7002 17.9952 35.6324 18.0145 35.5689L18.9005 32.6666C19.2199 31.6206 19.7914 30.6691 20.5648 29.8957L29.188 21.2726ZM34.1391 18.4438L35.5574 19.8621C36.1066 20.4112 36.1409 21.2803 35.6604 21.8694L35.5573 21.9834L33.788 23.7516L30.248 20.2116L32.0177 18.4438C32.6036 17.8581 33.5533 17.8581 34.1391 18.4438Z" fill="white"/>
</svg>
