<svg width="26" height="21" viewBox="0 0 26 21" fill="none" xmlns="http://www.w3.org/2000/svg">
<path d="M1 13V3C1 1.89543 1.89543 1 3 1H7.29844C7.75258 1 8.1932 1.15456 8.54783 1.43826L9.95217 2.56174C10.3068 2.84544 10.7474 3 11.2016 3H17C18.1046 3 19 3.89543 19 5V13C19 14.1046 18.1046 15 17 15H3C1.89543 15 1 14.1046 1 13Z" stroke="#3F8AE0" stroke-width="2"/>
<circle cx="19" cy="14" r="6" fill="currentColor" stroke="currentColor" stroke-width="2"/>
<path d="M19 11V14M19 17V14M19 14H16H22" stroke="#3F8AE0" stroke-width="2" stroke-linecap="round" stroke-linejoin="round"/>
</svg>
