<svg width="210" height="210" viewBox="0 0 210 210" fill="none" xmlns="http://www.w3.org/2000/svg">
<rect width="210" height="210" rx="30" fill="#4680C2"/>
<path fill-rule="evenodd" clip-rule="evenodd" d="M54.0767 26.0636C54.0767 26.099 53.9062 26.1272 53.6932 26.1272C53.4801 26.1272 53.3097 26.1555 53.3097 26.1908C53.3097 26.2258 53.1658 26.2545 52.9901 26.2545C52.8143 26.2545 52.6705 26.2831 52.6705 26.3181C52.6705 26.3531 52.5842 26.3817 52.4787 26.3817C52.3732 26.3817 52.2869 26.4103 52.2869 26.4453C52.2869 26.4803 52.2006 26.5089 52.0952 26.5089C51.9897 26.5089 51.9034 26.5376 51.9034 26.5725C51.9034 26.6075 51.8171 26.6362 51.7116 26.6362C51.6062 26.6362 51.5199 26.6648 51.5199 26.6998C51.5199 26.7348 51.4336 26.7634 51.3281 26.7634C51.2227 26.7634 51.1364 26.792 51.1364 26.827C51.1364 26.862 51.0788 26.8906 51.0085 26.8906C50.9382 26.8906 50.8807 26.9193 50.8807 26.9542C50.8807 26.9892 50.8232 27.0179 50.7528 27.0179C50.6825 27.0179 50.625 27.0465 50.625 27.0815C50.625 27.1165 50.5675 27.1451 50.4972 27.1451C50.4268 27.1451 50.3693 27.1737 50.3693 27.2087C50.3693 27.2437 50.3181 27.2723 50.2556 27.2723C50.193 27.2723 50.1004 27.3296 50.0497 27.3996C49.999 27.4695 49.9064 27.5268 49.8438 27.5268C49.7813 27.5268 49.7301 27.5554 49.7301 27.5904C49.7301 27.6254 49.6842 27.654 49.6279 27.654C49.5717 27.654 49.4451 27.7399 49.3466 27.8449C49.2481 27.9498 49.1336 28.0357 49.0922 28.0357C49.0508 28.0357 48.9064 28.1502 48.7713 28.2902C48.6362 28.4301 48.4941 28.5446 48.4555 28.5446C48.3641 28.5446 47.5568 29.3481 47.5568 29.4391C47.5568 29.4774 47.4418 29.6189 47.3011 29.7533C47.1605 29.8878 47.0455 30.0315 47.0455 30.0727C47.0455 30.1139 46.9592 30.2279 46.8537 30.3259C46.7482 30.4239 46.6619 30.5499 46.6619 30.6059C46.6619 30.6618 46.6332 30.7076 46.598 30.7076C46.5629 30.7076 46.5341 30.7585 46.5341 30.8208C46.5341 30.883 46.4766 30.9752 46.4062 31.0257C46.3359 31.0761 46.2784 31.1683 46.2784 31.2306C46.2784 31.2928 46.2496 31.3438 46.2145 31.3438C46.1793 31.3438 46.1506 31.401 46.1506 31.471C46.1506 31.541 46.1218 31.5982 46.0866 31.5982C46.0515 31.5982 46.0227 31.6555 46.0227 31.7254C46.0227 31.7954 45.994 31.8527 45.9588 31.8527C45.9237 31.8527 45.8949 31.9099 45.8949 31.9799C45.8949 32.0499 45.8661 32.1071 45.831 32.1071C45.7958 32.1071 45.767 32.193 45.767 32.298C45.767 32.403 45.7383 32.4888 45.7031 32.4888C45.668 32.4888 45.6392 32.5461 45.6392 32.6161C45.6392 32.686 45.6104 32.7433 45.5753 32.7433C45.5401 32.7433 45.5114 32.8578 45.5114 32.9978C45.5114 33.1377 45.4826 33.2522 45.4474 33.2522C45.4123 33.2522 45.3835 33.3381 45.3835 33.4431C45.3835 33.548 45.3548 33.6339 45.3196 33.6339C45.2844 33.6339 45.2557 33.7771 45.2557 33.952C45.2557 34.127 45.2269 34.2701 45.1918 34.2701C45.1562 34.2701 45.1278 34.4398 45.1278 34.6518C45.1278 34.8638 45.0995 35.0335 45.0639 35.0335C45.0214 35.0335 45 42.8158 45 58.2533C45 73.6909 45.0214 81.4732 45.0639 81.4732C45.0991 81.4732 45.1278 81.5528 45.1278 81.65C45.1278 81.7538 45.1806 81.8646 45.2557 81.9185C45.326 81.969 45.3835 82.0478 45.3835 82.0937C45.3835 82.2097 45.8051 82.6183 45.9247 82.6183C45.9786 82.6183 46.0227 82.6469 46.0227 82.6819C46.0227 82.7169 46.0803 82.7455 46.1506 82.7455C46.2209 82.7455 46.2784 82.7742 46.2784 82.8092C46.2784 82.8441 46.3647 82.8728 46.4702 82.8728C46.5756 82.8728 46.6619 82.9014 46.6619 82.9364C46.6619 82.9718 46.8324 83 47.0455 83C47.2585 83 47.429 82.9718 47.429 82.9364C47.429 82.9014 47.5377 82.8728 47.6705 82.8728C47.8388 82.8728 47.9401 82.8342 48.0043 82.7455C48.055 82.6756 48.1412 82.6183 48.196 82.6183C48.2508 82.6183 48.3371 82.561 48.3878 82.4911C48.4385 82.4211 48.5248 82.3638 48.5795 82.3638C48.6343 82.3638 48.7206 82.3066 48.7713 82.2366C48.822 82.1666 48.9083 82.1094 48.9631 82.1094C49.0178 82.1094 49.1041 82.0521 49.1548 81.9821C49.2055 81.9122 49.2866 81.8549 49.3351 81.8549C49.3835 81.8549 49.5038 81.769 49.6023 81.6641C49.7008 81.5591 49.8211 81.4732 49.8695 81.4732C49.9179 81.4732 49.999 81.416 50.0497 81.346C50.1004 81.276 50.1867 81.2188 50.2415 81.2188C50.2963 81.2188 50.3825 81.1615 50.4332 81.0915C50.4839 81.0215 50.5702 80.9643 50.625 80.9643C50.6798 80.9643 50.7661 80.907 50.8168 80.8371C50.8675 80.7671 50.9486 80.7098 50.997 80.7098C51.0454 80.7098 51.1657 80.6239 51.2642 80.519C51.3627 80.414 51.483 80.3281 51.5314 80.3281C51.5798 80.3281 51.661 80.2709 51.7116 80.2009C51.7623 80.1309 51.8486 80.0737 51.9034 80.0737C51.9582 80.0737 52.0445 80.0164 52.0952 79.9464C52.1459 79.8764 52.227 79.8192 52.2754 79.8192C52.3238 79.8192 52.4441 79.7333 52.5426 79.6283C52.6411 79.5234 52.7614 79.4375 52.8098 79.4375C52.8583 79.4375 52.9394 79.3802 52.9901 79.3103C53.0407 79.2403 53.127 79.183 53.1818 79.183C53.2366 79.183 53.3229 79.1258 53.3736 79.0558C53.4243 78.9858 53.5054 78.9286 53.5538 78.9286C53.6022 78.9286 53.7225 78.8427 53.821 78.7377C53.9195 78.6328 54.0398 78.5469 54.0882 78.5469C54.1367 78.5469 54.2178 78.4896 54.2685 78.4196C54.3192 78.3497 54.4054 78.2924 54.4602 78.2924C54.515 78.2924 54.6013 78.2352 54.652 78.1652C54.7027 78.0952 54.7838 78.0379 54.8322 78.0379C54.8806 78.0379 55.0009 77.9521 55.0994 77.8471C55.1979 77.7421 55.3182 77.6562 55.3666 77.6562C55.4151 77.6562 55.4962 77.599 55.5469 77.529C55.5976 77.459 55.6839 77.4018 55.7386 77.4018C55.7934 77.4018 55.8797 77.3445 55.9304 77.2746C55.9811 77.2046 56.0622 77.1473 56.1107 77.1473C56.159 77.1473 56.2793 77.0614 56.3778 76.9565C56.4763 76.8515 56.5966 76.7656 56.645 76.7656C56.6935 76.7656 56.7746 76.7084 56.8253 76.6384C56.876 76.5684 56.9623 76.5112 57.017 76.5112C57.0718 76.5112 57.1581 76.4539 57.2088 76.3839C57.2595 76.3139 57.3406 76.2567 57.3891 76.2567C57.4375 76.2567 57.5577 76.1708 57.6562 76.0658C57.7548 75.9609 57.875 75.875 57.9234 75.875C57.9719 75.875 58.053 75.8177 58.1037 75.7478C58.1544 75.6778 58.2407 75.6205 58.2955 75.6205C58.3502 75.6205 58.4365 75.5633 58.4872 75.4933C58.5379 75.4233 58.619 75.3661 58.6675 75.3661C58.7159 75.3661 58.8362 75.2802 58.9347 75.1752C59.0332 75.0703 59.1535 74.9844 59.2018 74.9844C59.2503 74.9844 59.3314 74.9271 59.3821 74.8571C59.4328 74.7872 59.5191 74.7299 59.5739 74.7299C59.6286 74.7299 59.7149 74.6727 59.7656 74.6027C59.8163 74.5327 59.8974 74.4754 59.9459 74.4754C59.9943 74.4754 60.1146 74.3896 60.2131 74.2846C60.3116 74.1796 60.4319 74.0938 60.4803 74.0938C60.5287 74.0938 60.6098 74.0365 60.6605 73.9665C60.7112 73.8965 60.7975 73.8393 60.8523 73.8393C60.9071 73.8393 60.9933 73.782 61.044 73.7121C61.0947 73.6421 61.1758 73.5848 61.2243 73.5848C61.2727 73.5848 61.393 73.4989 61.4915 73.394C61.59 73.289 61.7103 73.2031 61.7587 73.2031C61.8071 73.2031 61.8882 73.1459 61.9389 73.0759C61.9896 73.0059 62.0759 72.9487 62.1307 72.9487C62.1855 72.9487 62.2718 72.8914 62.3224 72.8214C62.3731 72.7514 62.4542 72.6942 62.5027 72.6942C62.5511 72.6942 62.6714 72.6083 62.7699 72.5033C62.8684 72.3984 62.9887 72.3125 63.0371 72.3125C63.0855 72.3125 63.1666 72.2552 63.2173 72.1853C63.268 72.1153 63.3543 72.058 63.4091 72.058C63.4639 72.058 63.5502 72.0008 63.6009 71.9308C63.6515 71.8608 63.7327 71.8036 63.7811 71.8036C63.8295 71.8036 63.9498 71.7177 64.0483 71.6127C64.1468 71.5078 64.2671 71.4219 64.3155 71.4219C64.3639 71.4219 64.445 71.3646 64.4957 71.2946C64.5464 71.2247 64.6327 71.1674 64.6875 71.1674C64.7423 71.1674 64.8286 71.1102 64.8793 71.0402C64.93 70.9702 65.0111 70.9129 65.0595 70.9129C65.1079 70.9129 65.2282 70.8271 65.3267 70.7221C65.4252 70.6171 65.5455 70.5312 65.5939 70.5312C65.6423 70.5312 65.7235 70.474 65.7741 70.404C65.8248 70.334 65.9111 70.2768 65.9659 70.2768C66.0207 70.2768 66.107 70.2195 66.1577 70.1496C66.2084 70.0796 66.2895 70.0223 66.3379 70.0223C66.3863 70.0223 66.5066 69.9364 66.6051 69.8315C66.7036 69.7265 66.8239 69.6406 66.8723 69.6406C66.9208 69.6406 67.0019 69.5834 67.0526 69.5134C67.1032 69.4434 67.1959 69.3862 67.2584 69.3862C67.321 69.3862 67.3722 69.3575 67.3722 69.3225C67.3722 69.2876 67.4297 69.2589 67.5 69.2589C67.5703 69.2589 67.6278 69.2876 67.6278 69.3225C67.6278 69.3575 67.679 69.3862 67.7416 69.3862C67.8041 69.3862 67.8968 69.4434 67.9474 69.5134C67.9981 69.5834 68.0844 69.6406 68.1392 69.6406C68.194 69.6406 68.2803 69.6979 68.331 69.7679C68.3817 69.8378 68.4628 69.8951 68.5112 69.8951C68.5596 69.8951 68.6799 69.981 68.7784 70.0859C68.8769 70.1909 68.9972 70.2768 69.0456 70.2768C69.094 70.2768 69.1752 70.334 69.2259 70.404C69.2765 70.474 69.3628 70.5312 69.4176 70.5312C69.4724 70.5312 69.5587 70.5885 69.6094 70.6585C69.6601 70.7285 69.7412 70.7857 69.7896 70.7857C69.838 70.7857 69.9583 70.8716 70.0568 70.9766C70.1553 71.0815 70.2756 71.1674 70.324 71.1674C70.3725 71.1674 70.4536 71.2247 70.5043 71.2946C70.555 71.3646 70.6412 71.4219 70.696 71.4219C70.7508 71.4219 70.8371 71.4791 70.8878 71.5491C70.9385 71.6191 71.0196 71.6763 71.068 71.6763C71.1164 71.6763 71.2367 71.7622 71.3352 71.8672C71.4337 71.9722 71.554 72.058 71.6024 72.058C71.6509 72.058 71.732 72.1153 71.7827 72.1853C71.8334 72.2552 71.9197 72.3125 71.9744 72.3125C72.0292 72.3125 72.1155 72.3698 72.1662 72.4397C72.2169 72.5097 72.298 72.567 72.3465 72.567C72.3948 72.567 72.5151 72.6528 72.6136 72.7578C72.7121 72.8628 72.8324 72.9487 72.8808 72.9487C72.9293 72.9487 73.0104 73.0059 73.0611 73.0759C73.1118 73.1459 73.1981 73.2031 73.2528 73.2031C73.3076 73.2031 73.3939 73.2604 73.4446 73.3304C73.4953 73.4003 73.5764 73.4576 73.6249 73.4576C73.6732 73.4576 73.7935 73.5435 73.892 73.6484C73.9905 73.7534 74.1108 73.8393 74.1592 73.8393C74.2077 73.8393 74.2888 73.8965 74.3395 73.9665C74.3902 74.0365 74.4765 74.0938 74.5312 74.0938C74.586 74.0938 74.6723 74.151 74.723 74.221C74.7737 74.291 74.8548 74.3482 74.9033 74.3482C74.9517 74.3482 75.072 74.4341 75.1705 74.5391C75.269 74.644 75.3893 74.7299 75.4376 74.7299C75.4861 74.7299 75.5672 74.7872 75.6179 74.8571C75.6686 74.9271 75.7549 74.9844 75.8097 74.9844C75.8644 74.9844 75.9507 75.0416 76.0014 75.1116C76.0521 75.1816 76.1332 75.2388 76.1817 75.2388C76.2301 75.2388 76.3504 75.3247 76.4489 75.4297C76.5474 75.5347 76.6677 75.6205 76.716 75.6205C76.7645 75.6205 76.8456 75.6778 76.8963 75.7478C76.947 75.8177 77.0333 75.875 77.0881 75.875C77.1428 75.875 77.2291 75.9323 77.2798 76.0022C77.3305 76.0722 77.4116 76.1295 77.4601 76.1295C77.5085 76.1295 77.6288 76.2153 77.7273 76.3203C77.8258 76.4253 77.9461 76.5112 77.9945 76.5112C78.0429 76.5112 78.124 76.5684 78.1747 76.6384C78.2254 76.7084 78.3117 76.7656 78.3665 76.7656C78.4213 76.7656 78.5075 76.8229 78.5582 76.8929C78.6089 76.9628 78.69 77.0201 78.7385 77.0201C78.7869 77.0201 78.9072 77.106 79.0057 77.2109C79.1042 77.3159 79.2245 77.4018 79.2729 77.4018C79.3213 77.4018 79.4024 77.459 79.4531 77.529C79.5038 77.599 79.5901 77.6562 79.6449 77.6562C79.6997 77.6562 79.786 77.7135 79.8366 77.7835C79.8873 77.8535 79.9685 77.9107 80.0169 77.9107C80.0653 77.9107 80.1856 77.9966 80.2841 78.1016C80.3826 78.2065 80.5029 78.2924 80.5513 78.2924C80.5997 78.2924 80.6808 78.3497 80.7315 78.4196C80.7822 78.4896 80.8685 78.5469 80.9233 78.5469C80.9781 78.5469 81.0644 78.6041 81.1151 78.6741C81.1657 78.7441 81.2469 78.8013 81.2953 78.8013C81.3437 78.8013 81.464 78.8872 81.5625 78.9922C81.661 79.0972 81.7813 79.183 81.8297 79.183C81.8781 79.183 81.9593 79.2403 82.0099 79.3103C82.0606 79.3802 82.1469 79.4375 82.2017 79.4375C82.2565 79.4375 82.3428 79.4948 82.3935 79.5647C82.4442 79.6347 82.5253 79.692 82.5737 79.692C82.6221 79.692 82.7424 79.7778 82.8409 79.8828C82.9394 79.9878 83.0597 80.0737 83.1081 80.0737C83.1565 80.0737 83.2377 80.1309 83.2884 80.2009C83.339 80.2709 83.4253 80.3281 83.4801 80.3281C83.5349 80.3281 83.6212 80.3854 83.6719 80.4554C83.7226 80.5253 83.8037 80.5826 83.8521 80.5826C83.9005 80.5826 84.0208 80.6685 84.1193 80.7734C84.2178 80.8784 84.3381 80.9643 84.3865 80.9643C84.435 80.9643 84.5161 81.0215 84.5668 81.0915C84.6175 81.1615 84.7037 81.2188 84.7585 81.2188C84.8133 81.2188 84.8996 81.276 84.9503 81.346C85.001 81.416 85.0821 81.4732 85.1305 81.4732C85.1789 81.4732 85.2992 81.5591 85.3977 81.6641C85.4962 81.769 85.6165 81.8549 85.6649 81.8549C85.7134 81.8549 85.7945 81.9122 85.8452 81.9821C85.8959 82.0521 85.9822 82.1094 86.0369 82.1094C86.0917 82.1094 86.178 82.1666 86.2287 82.2366C86.2794 82.3066 86.3657 82.3638 86.4205 82.3638C86.4752 82.3638 86.5615 82.4211 86.6122 82.4911C86.6629 82.561 86.7492 82.6183 86.804 82.6183C86.8588 82.6183 86.945 82.6756 86.9957 82.7455C87.0499 82.8202 87.1612 82.8728 87.2655 82.8728C87.3632 82.8728 87.4432 82.9014 87.4432 82.9364C87.4432 82.9735 87.6562 83 87.9545 83C88.2529 83 88.4659 82.9735 88.4659 82.9364C88.4659 82.9014 88.5522 82.8728 88.6577 82.8728C88.7631 82.8728 88.8494 82.8441 88.8494 82.8092C88.8494 82.7742 88.8932 82.7455 88.9467 82.7455C89.0733 82.7455 89.7443 82.0777 89.7443 81.9517C89.7443 81.8985 89.7731 81.8549 89.8082 81.8549C89.8434 81.8549 89.8722 81.769 89.8722 81.6641C89.8722 81.5591 89.9009 81.4732 89.9361 81.4732C89.9786 81.4732 90 73.6909 90 58.2533C90 42.8158 89.9786 35.0335 89.9361 35.0335C89.9005 35.0335 89.8722 34.8638 89.8722 34.6518C89.8722 34.4398 89.8438 34.2701 89.8082 34.2701C89.7731 34.2701 89.7443 34.127 89.7443 33.952C89.7443 33.7771 89.7156 33.6339 89.6804 33.6339C89.6452 33.6339 89.6165 33.5194 89.6165 33.3795C89.6165 33.2395 89.5877 33.125 89.5526 33.125C89.5174 33.125 89.4886 33.0391 89.4886 32.9342C89.4886 32.8292 89.4599 32.7433 89.4247 32.7433C89.3896 32.7433 89.3608 32.686 89.3608 32.6161C89.3608 32.5461 89.332 32.4888 89.2969 32.4888C89.2617 32.4888 89.233 32.403 89.233 32.298C89.233 32.193 89.2042 32.1071 89.169 32.1071C89.1339 32.1071 89.1051 32.0499 89.1051 31.9799C89.1051 31.9099 89.0763 31.8527 89.0412 31.8527C89.006 31.8527 88.9773 31.7954 88.9773 31.7254C88.9773 31.6555 88.9485 31.5982 88.9134 31.5982C88.8782 31.5982 88.8494 31.541 88.8494 31.471C88.8494 31.401 88.8207 31.3438 88.7855 31.3438C88.7504 31.3438 88.7216 31.2928 88.7216 31.2306C88.7216 31.1683 88.6641 31.0761 88.5938 31.0257C88.5234 30.9752 88.4659 30.8893 88.4659 30.8348C88.4659 30.7803 88.4084 30.6944 88.3381 30.644C88.2678 30.5935 88.2102 30.5076 88.2102 30.4531C88.2102 30.3986 88.1527 30.3127 88.0824 30.2623C88.0121 30.2118 87.9545 30.1321 87.9545 30.085C87.9545 30.038 87.8107 29.8602 87.6349 29.6897C87.4592 29.5193 87.3153 29.3487 87.3153 29.3105C87.3153 29.2201 86.7645 28.6719 86.6736 28.6719C86.6353 28.6719 86.4639 28.5287 86.2926 28.3538C86.1214 28.1789 85.9426 28.0357 85.8954 28.0357C85.8481 28.0357 85.768 27.9785 85.7173 27.9085C85.6666 27.8385 85.5803 27.7812 85.5256 27.7812C85.4708 27.7812 85.3845 27.724 85.3338 27.654C85.2831 27.584 85.1968 27.5268 85.142 27.5268C85.0873 27.5268 85.001 27.4695 84.9503 27.3996C84.8996 27.3296 84.807 27.2723 84.7444 27.2723C84.6819 27.2723 84.6307 27.2437 84.6307 27.2087C84.6307 27.1737 84.5732 27.1451 84.5028 27.1451C84.4325 27.1451 84.375 27.1165 84.375 27.0815C84.375 27.0465 84.3175 27.0179 84.2472 27.0179C84.1768 27.0179 84.1193 26.9892 84.1193 26.9542C84.1193 26.9193 84.0618 26.8906 83.9915 26.8906C83.9212 26.8906 83.8636 26.862 83.8636 26.827C83.8636 26.792 83.7773 26.7634 83.6719 26.7634C83.5664 26.7634 83.4801 26.7348 83.4801 26.6998C83.4801 26.6648 83.4226 26.6362 83.3523 26.6362C83.282 26.6362 83.2244 26.6075 83.2244 26.5725C83.2244 26.5376 83.1094 26.5089 82.9688 26.5089C82.8281 26.5089 82.7131 26.4803 82.7131 26.4453C82.7131 26.4103 82.6268 26.3817 82.5213 26.3817C82.4158 26.3817 82.3295 26.3531 82.3295 26.3181C82.3295 26.2831 82.1857 26.2545 82.0099 26.2545C81.8342 26.2545 81.6903 26.2258 81.6903 26.1908C81.6903 26.1555 81.5199 26.1272 81.3068 26.1272C81.0938 26.1272 80.9233 26.099 80.9233 26.0636C80.9233 26.0214 76.4062 26 67.5 26C58.5938 26 54.0767 26.0214 54.0767 26.0636Z" fill="white"/>
<rect x="45" width="45" height="50" fill="white"/>
</svg>
