<svg width="343" height="358" viewBox="0 0 343 358" fill="none" xmlns="http://www.w3.org/2000/svg">
<path d="M242.682 351.564C250.908 351.881 258.818 351.564 267.045 351.564C289.509 351.248 312.291 350.615 334.755 350.299C338.236 350.299 342.665 349.35 342.982 346.818C343.298 344.287 339.501 343.021 336.654 342.072C325.896 339.541 314.505 338.908 303.115 338.592C286.662 337.959 269.892 337.326 253.439 337.01C242.998 336.693 232.557 336.693 222.748 339.225C217.369 340.807 209.776 346.818 218.002 349.982C220.217 350.932 224.963 350.299 227.494 350.615C232.873 351.248 237.619 351.564 242.682 351.564Z" fill="#99A2AD"/>
<path d="M284.13 335.744C284.13 336.061 284.13 336.061 284.446 336.061C284.763 336.377 284.763 336.377 285.079 336.377C286.978 336.377 288.56 336.061 290.458 336.061C291.091 336.061 292.04 335.744 292.357 334.795C292.357 334.479 292.357 334.162 292.04 333.846C291.407 331.947 290.458 329.733 289.825 327.834C289.825 327.834 289.825 327.834 289.825 327.518H289.509C288.243 327.518 286.978 327.518 285.712 327.834C284.763 327.834 283.497 328.151 283.181 329.1C282.864 330.049 283.497 331.315 283.497 332.264C283.497 333.213 283.814 334.479 284.13 335.744Z" fill="#F9E9DE"/>
<path d="M241.099 335.744C242.681 335.744 244.58 336.061 246.162 336.061C246.478 336.061 246.478 336.061 246.478 336.061C246.478 336.061 246.795 335.744 246.795 335.428C246.795 333.213 246.795 330.998 246.795 328.783C246.795 328.467 246.795 328.467 246.795 328.467C246.795 328.151 246.478 328.151 246.162 328.151C245.213 327.834 244.263 327.834 243.314 327.834C242.365 327.834 241.732 327.834 240.783 328.467C240.15 328.783 240.15 329.1 240.15 330.049C240.467 331.631 240.467 333.529 241.099 335.744Z" fill="#F9E9DE"/>
<path d="M280.966 328.784C284.447 329.416 288.243 329.1 291.408 327.518C287.927 315.178 286.661 311.698 283.181 299.358C281.915 295.561 280.966 291.448 280.333 287.651C279.701 282.589 280.333 277.843 280.65 272.78C282.548 253.479 287.294 190.199 288.876 170.898C288.876 169.316 289.193 167.734 288.56 166.152C286.978 161.722 274.322 161.09 269.892 160.457C268.943 160.457 261.349 160.457 260.4 160.773C259.451 161.406 251.857 160.14 251.857 161.09C249.642 175.961 257.869 207.601 258.185 223.738C258.185 229.116 260.4 263.288 260.716 268.667C261.349 278.159 264.513 287.967 268.31 296.51C274.322 310.432 275.271 313.28 280.966 328.784Z" fill="#97A8B2"/>
<path d="M254.705 163.304C253.439 162.355 242.049 161.406 240.783 161.406L222.748 161.722C222.432 190.831 228.127 271.198 233.822 299.991C236.353 312.33 238.885 316.444 238.885 329.1C241.416 329.1 244.263 329.1 246.795 329.1C247.744 289.549 257.552 207.601 258.502 168.367C258.502 166.468 256.287 164.57 254.705 163.304Z" fill="#97A8B2"/>
<path d="M244.897 71.5471C242.365 63.0042 232.557 61.7385 230.975 72.8127C229.393 82.6212 222.115 103.504 218.002 113.312C216.104 118.058 211.991 121.539 206.612 123.754C195.854 127.867 185.413 132.613 174.338 136.093C174.338 136.093 174.338 136.093 174.338 136.41C172.44 137.043 170.542 137.359 168.643 137.359C166.112 137.359 163.264 136.726 161.05 137.992C161.05 138.308 161.366 138.625 161.366 138.941C161.999 138.941 162.315 139.257 162.948 139.257C161.682 139.574 160.417 139.89 159.151 140.523C158.202 141.156 156.936 142.105 157.253 143.371C157.569 144.636 159.151 144.953 160.417 144.953C165.796 144.953 170.858 143.371 175.92 141.789C189.842 138.941 199.334 134.195 213.573 131.347C216.42 130.715 219.268 130.398 221.483 128.816C223.697 127.551 225.279 125.336 226.861 123.437C236.67 109.832 249.01 85.1524 244.897 71.5471Z" fill="#F9E9DE"/>
<path d="M266.412 53.8285C268.31 51.6137 269.892 48.766 270.842 45.2856C272.424 38.6411 273.056 31.6802 271.474 25.0358C269.576 17.4421 262.931 9.21557 254.705 10.1648C244.896 10.7976 243.314 23.7701 242.682 32.313C242.049 38.9575 243.314 46.2348 247.428 51.2973C253.123 59.2074 261.033 59.2074 266.412 53.8285Z" fill="#F9E9DE"/>
<path d="M227.177 334.479C228.759 334.479 230.341 334.479 231.923 334.795C233.822 335.112 235.72 335.428 237.302 335.428C238.252 335.428 238.884 335.112 239.834 335.112C241.099 334.795 242.365 334.795 243.63 335.112C244.896 335.112 245.845 335.112 247.111 335.112C247.427 335.112 247.744 335.112 248.06 335.428C248.376 335.745 248.376 336.061 248.376 336.377C248.693 337.643 248.693 338.909 248.693 340.491C248.693 341.44 248.693 342.073 248.06 342.705C247.744 343.022 247.111 343.338 246.478 343.338C245.529 343.655 244.263 343.655 243.314 343.655C237.619 343.971 232.24 344.287 226.545 343.971C224.646 343.971 221.166 344.287 219.584 342.705C218.318 341.44 218.951 339.225 219.584 337.959C221.482 335.112 224.33 334.479 227.177 334.479Z" fill="#537082"/>
<path d="M229.709 339.541C230.026 339.541 230.658 339.857 230.975 339.541C230.975 339.541 230.975 339.541 231.291 339.541C231.291 339.541 231.291 339.541 231.291 339.225C231.291 337.959 231.291 336.377 231.291 335.111C231.291 335.111 231.291 335.111 231.291 334.795C231.291 334.795 231.291 334.795 230.975 334.795C229.709 334.479 229.709 334.795 229.709 336.061C229.709 337.01 229.709 338.275 229.709 339.541Z" fill="#C1C1C1"/>
<path d="M234.139 338.908V339.225H234.455C234.771 339.225 235.088 339.225 235.404 339.225C235.404 339.225 235.404 339.225 235.721 339.225C235.721 339.225 235.721 339.225 235.721 338.908C235.721 337.643 235.721 336.694 235.721 335.428C235.721 335.428 235.721 335.428 235.721 335.112C235.088 334.795 234.771 335.112 234.139 335.112C233.822 336.061 234.139 337.643 234.139 338.908Z" fill="#C1C1C1"/>
<path d="M238.252 338.592C238.885 338.909 238.885 338.909 239.201 338.909H239.518V338.592C239.518 337.959 239.518 334.479 238.252 335.112C237.303 335.428 237.936 337.643 238.252 338.592Z" fill="#C1C1C1"/>
<path d="M282.865 336.377C283.181 335.744 283.814 334.795 284.447 334.162C285.08 333.529 286.029 333.213 286.978 332.897C288.244 332.58 289.193 332.264 290.459 332.58C292.357 332.897 293.939 334.162 294.888 335.744C295.838 337.326 296.47 339.225 296.787 341.123C296.787 341.44 296.787 342.072 296.787 342.389C296.787 342.705 296.154 343.022 295.838 343.338C294.572 343.971 293.306 344.287 292.041 344.604C290.142 344.92 287.927 344.92 286.029 344.92C285.08 344.92 284.131 344.92 283.181 344.604C281.599 343.971 280.967 343.338 281.283 341.756C281.283 339.858 281.916 338.276 282.865 336.377Z" fill="#537082"/>
<path d="M236.354 82.3047C233.19 106.984 226.545 131.347 221.483 155.71C220.85 157.925 220.533 160.456 221.166 162.988C222.115 166.152 224.963 168.683 228.127 169.632C231.608 170.898 235.404 171.214 238.885 171.531C252.49 172.163 266.096 172.163 279.701 171.531C281.599 171.531 283.498 171.214 285.08 170.581C287.927 169.316 289.509 165.835 289.826 162.671C290.142 159.507 289.509 156.343 289.193 153.179C286.029 133.879 288.56 114.261 285.08 94.9609C284.131 89.582 282.549 84.2031 282.232 78.5079C281.916 75.3438 282.232 72.1798 281.283 69.0158C280.65 65.8517 279.068 62.6877 276.22 61.1057C271.158 58.258 264.83 61.1057 259.135 61.7385C255.338 62.3713 251.541 61.7385 247.744 60.7893C244.897 60.1564 242.049 58.258 239.834 60.7893C236.67 65.5353 236.986 76.293 236.354 82.3047Z" fill="#EFEFEF"/>
<path d="M236.037 114.261C232.556 114.261 232.556 119.957 236.037 119.957C239.834 119.957 239.834 114.261 236.037 114.261Z" fill="#333333"/>
<path d="M243.631 100.023C240.15 100.023 240.15 105.719 243.631 105.719C247.428 105.719 247.428 100.023 243.631 100.023Z" fill="#333333"/>
<path d="M250.275 121.855C246.794 121.855 246.794 127.55 250.275 127.55C253.755 127.234 253.755 121.855 250.275 121.855Z" fill="#333333"/>
<path d="M255.021 88.6328C251.54 88.6328 251.54 94.3281 255.021 94.3281C258.501 94.3281 258.501 88.6328 255.021 88.6328Z" fill="#333333"/>
<path d="M231.607 136.726C228.127 136.726 228.127 142.421 231.607 142.421C235.404 142.421 235.404 136.726 231.607 136.726Z" fill="#333333"/>
<path d="M261.982 108.25C258.501 108.25 258.501 113.945 261.982 113.945C265.779 113.629 265.779 108.25 261.982 108.25Z" fill="#333333"/>
<path d="M229.076 157.609C225.595 157.609 225.595 163.304 229.076 163.304C232.556 163.304 232.556 157.609 229.076 157.609Z" fill="#333333"/>
<path d="M244.579 144.003C241.099 144.003 241.099 149.699 244.579 149.699C248.376 149.699 248.376 144.003 244.579 144.003Z" fill="#333333"/>
<path d="M257.236 158.874C253.755 158.874 253.755 164.57 257.236 164.57C260.716 164.253 260.716 158.874 257.236 158.874Z" fill="#333333"/>
<path d="M261.982 136.726C258.501 136.726 258.501 142.421 261.982 142.421C265.779 142.421 265.779 136.726 261.982 136.726Z" fill="#333333"/>
<path d="M284.13 158.874C280.65 158.874 280.65 164.57 284.13 164.57C287.611 164.253 287.611 158.874 284.13 158.874Z" fill="#333333"/>
<path d="M284.13 133.562C287.611 133.562 287.611 127.867 284.13 127.867C280.65 128.183 280.65 133.562 284.13 133.562Z" fill="#333333"/>
<path d="M244.579 78.1914C241.099 78.1914 241.099 83.8867 244.579 83.8867C248.376 83.5703 248.376 78.1914 244.579 78.1914Z" fill="#333333"/>
<path d="M257.236 71.5467C260.716 71.5467 260.716 65.8514 257.236 65.8514C253.755 65.8514 253.755 71.5467 257.236 71.5467Z" fill="#333333"/>
<path d="M274.005 62.0548C270.525 62.0548 270.525 67.7501 274.005 67.7501C277.802 67.7501 277.802 62.0548 274.005 62.0548Z" fill="#333333"/>
<path d="M281.283 94.0116C277.802 94.0116 277.802 99.7069 281.283 99.7069C285.08 99.7069 285.08 94.0116 281.283 94.0116Z" fill="#333333"/>
<path d="M252.49 169.632C248.377 161.722 246.795 152.863 244.58 144.32C242.366 135.144 240.467 125.652 239.201 116.476C237.936 107.617 237.303 98.7578 237.303 89.8985C237.303 85.4688 237.303 81.3556 237.619 76.9259C237.936 73.4455 237.303 58.5745 244.264 61.1057C244.897 61.4221 245.213 60.4729 244.58 60.1565C238.885 57.3089 236.987 63.9533 236.354 68.383C234.772 80.4063 234.772 92.7461 235.405 104.769C236.037 116.16 237.936 127.234 240.467 138.308C242.998 149.066 245.213 160.773 250.276 170.581C251.225 172.163 253.123 170.898 252.49 169.632Z" fill="#BC6269"/>
<path d="M287.294 109.515C286.978 108.883 286.345 109.199 286.345 109.832C290.142 130.082 294.255 150.332 286.662 170.581C286.029 171.847 288.244 172.48 288.876 171.214C296.47 150.964 293.623 129.133 287.294 109.515Z" fill="#BC6269"/>
<path d="M279.069 163.937C281.283 163.62 283.815 163.62 285.713 164.886C287.928 166.468 288.561 168.999 289.194 171.847C290.776 180.073 291.408 188.3 291.408 196.843C291.408 198.108 291.408 199.69 290.776 200.64C289.826 202.538 287.928 203.487 286.03 204.12C278.119 207.284 269.26 206.968 261.034 206.968C260.084 206.968 259.135 206.968 258.502 206.335C257.237 205.702 256.92 204.12 256.604 202.854C254.389 193.362 253.124 183.554 251.858 174.062C251.542 172.48 251.542 170.898 251.858 169.316C253.44 163.304 273.69 164.57 279.069 163.937Z" fill="#AA4A4D"/>
<path d="M284.131 171.531C282.549 185.136 261.666 188.933 256.604 175.644C256.604 175.327 255.971 175.327 255.971 175.96C261.033 191.148 284.131 186.401 285.713 171.531C286.029 170.581 284.447 170.581 284.131 171.531Z" fill="#BC6269"/>
<path d="M271.791 181.339C272.74 180.706 272.74 179.441 272.107 178.808C271.158 177.859 269.893 178.491 269.26 179.441V179.757C269.26 180.073 269.26 180.39 269.26 180.706C269.893 181.339 271.158 181.972 271.791 181.339Z" fill="#BC6269"/>
<path d="M282.549 110.781C282.232 103.82 281.599 96.8594 280.65 89.8985C280.334 87.3673 280.017 84.8361 279.385 82.6213C278.752 80.4064 277.486 78.508 277.17 76.2932C276.853 74.7112 276.853 72.8127 276.221 71.5471C274.955 69.6487 272.74 69.3323 270.525 69.0159C267.994 68.6995 265.463 69.0159 263.564 70.5979C261.033 73.1291 261.35 77.2424 262.299 80.7228C263.248 83.8869 264.197 87.3673 264.83 90.5313C266.096 96.8594 266.412 103.504 267.678 109.832C268.627 115.211 268.627 120.273 268.943 125.652C269.576 134.195 267.678 142.738 266.096 151.281C265.146 156.343 264.197 161.406 264.197 166.468C263.248 169.316 262.615 172.48 261.666 175.328C261.666 175.644 261.35 176.277 261.982 176.277C262.299 176.277 262.615 176.277 262.615 176.277C262.932 176.277 262.932 176.593 262.932 176.91C263.248 178.175 262.615 179.441 262.299 180.706C261.982 181.972 261.666 183.554 262.615 184.503C263.248 185.136 263.881 185.452 264.83 185.769C266.096 186.085 267.678 186.085 268.943 185.136C270.842 183.87 271.158 181.339 271.475 179.441C271.791 175.328 272.107 171.531 272.424 167.417C275.588 153.179 278.752 138.941 281.916 125.019C282.232 122.805 282.865 120.59 283.181 118.691C282.549 116.16 282.549 113.312 282.549 110.781Z" fill="#F9E9DE"/>
<path d="M305.963 94.9611C305.013 94.3283 303.431 94.0119 302.482 93.0627C301.217 91.7971 301.217 89.5823 301.533 88.0002C302.166 86.1018 303.115 84.5198 303.115 82.9378C303.748 78.1917 299.635 74.3949 296.787 70.598C288.877 60.7895 286.978 47.5006 286.978 35.4772C286.978 32.6296 287.295 30.0984 286.662 27.8835C286.662 27.5671 286.662 27.5671 286.662 27.2507C288.244 19.9734 285.713 15.5438 281.283 10.7977C273.689 2.88763 261.983 -0.276403 251.541 3.83685C251.225 3.83685 250.908 4.15325 250.592 4.15325C247.112 7.31729 243.948 10.7977 242.682 15.8602C241.733 18.7078 241.733 22.1883 242.049 25.3523C242.049 25.6687 242.365 26.3015 242.365 26.6179C242.682 23.4539 243.315 19.657 244.897 18.7078C246.479 17.7586 254.072 20.2898 256.287 20.2898C260.084 19.9734 267.045 17.4422 268.943 21.8719C269.893 24.0867 268.627 26.9343 267.678 29.1491V29.4656C267.045 30.7312 266.412 32.3132 266.412 32.6296C265.779 36.7428 265.147 40.5397 265.147 43.3873C263.565 48.7662 263.565 54.4614 263.565 60.1567C263.565 61.1059 263.565 61.7387 263.881 62.6879C265.147 65.5356 269.26 64.9028 272.424 65.5356C275.588 66.1684 278.119 69.016 279.701 71.8637C283.814 79.7737 282.232 89.5823 283.182 98.758C283.498 101.289 283.814 103.504 285.08 105.719C287.611 110.149 292.99 112.363 297.736 111.414C302.482 110.465 306.595 105.719 306.912 100.973C308.177 98.4416 307.861 96.2267 305.963 94.9611Z" fill="#8C6239"/>
<path d="M55.0542 357.26C62.9643 357.576 71.1908 357.26 79.1009 357.26C101.566 356.943 123.714 356.311 146.179 355.994C149.659 355.994 154.089 355.045 154.405 352.514C154.721 349.983 151.241 348.717 148.077 347.768C137.319 345.236 126.245 344.604 114.855 344.287C98.4015 343.654 81.9485 343.022 65.812 342.705C55.687 342.389 44.9293 342.389 35.4372 344.92C30.3747 346.502 22.4646 352.514 30.6911 355.678C32.906 356.627 37.652 355.994 40.1832 356.311C45.2457 356.627 50.3082 356.943 55.0542 357.26Z" fill="#99A2AD"/>
<path d="M281.599 345.236C282.232 346.186 283.498 346.185 284.763 346.185C287.927 346.185 291.091 346.185 294.255 345.869C294.888 345.869 295.837 345.553 296.154 345.236C296.47 344.92 297.103 343.971 297.103 343.338C297.103 342.705 296.154 342.072 295.521 341.756C294.888 341.439 293.939 341.756 293.306 341.756C290.775 342.072 288.244 342.705 285.712 343.021C284.447 343.021 283.181 343.021 281.916 343.338C280.966 343.338 281.283 344.603 281.599 345.236Z" fill="white"/>
<path d="M220.217 343.971C220.85 344.287 221.483 344.604 222.116 344.604C225.596 344.92 229.077 344.92 232.557 344.92C235.088 344.92 237.62 344.92 240.151 344.92C242.366 344.92 244.58 344.92 246.795 344.287C247.428 344.287 247.745 343.971 248.377 343.654C248.694 343.338 249.01 343.022 249.01 342.389C249.01 342.072 249.01 341.756 248.694 341.756C248.377 341.44 247.745 341.44 247.428 341.44C239.202 342.705 230.659 342.705 222.432 341.756C221.799 341.756 220.85 341.44 220.217 342.072C219.585 342.705 219.901 343.654 220.217 343.971Z" fill="white"/>
<path d="M152.19 137.043C151.557 135.461 151.241 133.878 151.557 132.296C152.19 130.714 153.772 129.765 155.354 129.449C157.253 128.816 158.835 128.5 160.733 128.5C161.682 128.5 163.264 128.183 164.214 128.5C165.163 129.132 165.479 130.714 165.796 131.98C167.694 139.574 169.276 145.902 170.542 153.179C170.858 154.128 170.858 155.394 170.225 156.027C169.909 156.343 169.276 156.66 168.96 156.976C166.112 157.925 157.569 160.773 156.304 155.71C154.722 149.382 154.089 143.371 152.19 137.043Z" fill="#AA6A64"/>
<path d="M152.506 135.461C152.506 134.828 152.506 134.195 152.506 133.562C152.823 132.929 153.456 132.613 154.088 132.613C156.62 131.98 159.151 131.347 161.682 131.031C161.998 131.031 162.948 130.715 163.58 131.031C163.897 131.031 164.213 131.347 164.53 131.664C165.162 132.297 165.162 133.562 165.479 134.511C165.795 135.461 165.795 136.41 166.112 137.359C166.428 138.308 166.745 139.258 166.745 140.523C167.061 142.105 167.377 143.371 168.01 144.953C168.327 145.902 168.643 147.168 168.959 148.117C169.276 148.75 169.276 149.066 168.959 149.699C168.959 150.332 168.327 150.648 167.694 150.964C166.428 151.281 165.479 151.597 164.213 151.914C162.315 152.23 160.733 152.546 158.834 152.863C158.202 152.863 156.936 153.496 156.303 152.546C155.987 152.23 155.987 151.281 155.987 150.964C155.987 150.332 155.67 149.699 155.67 148.75C155.038 145.902 154.405 143.371 153.772 140.523C153.139 138.625 152.823 137.043 152.506 135.461Z" fill="white"/>
<path d="M159.784 130.082C159.468 130.082 159.468 130.082 159.151 130.082C158.519 130.398 158.202 130.398 157.569 130.398C157.253 130.398 156.937 130.398 156.937 130.714C156.937 130.714 156.937 130.714 157.253 131.031C157.569 131.031 160.101 130.714 160.101 130.398C160.101 130.082 159.784 130.082 159.784 130.082Z" fill="#5E625E"/>
<path d="M156.62 130.714C156.304 130.714 156.304 131.031 156.304 131.031V131.347H156.62C156.62 131.347 156.937 131.031 156.62 130.714Z" fill="#5E625E"/>
<path d="M162.632 153.812C162.315 154.128 162.315 154.445 162.315 154.761V155.077C162.315 155.394 162.632 155.71 163.265 155.71C163.581 155.71 163.897 155.71 164.214 155.71H164.53C164.53 155.71 164.53 155.394 164.847 155.394C164.847 155.077 164.847 154.445 164.847 154.128C164.214 153.495 163.265 153.179 162.632 153.812Z" fill="#EBEFEB"/>
<path d="M143.964 145.269C142.382 143.371 139.851 142.105 137.636 142.105C138.269 141.472 138.902 140.523 138.269 139.89C137.952 139.574 137.32 139.574 136.687 139.574C134.472 139.89 132.257 139.574 130.359 138.941C130.042 138.941 130.042 138.941 129.726 138.625C117.07 133.879 104.73 128.183 93.0231 121.222C93.9723 117.109 93.6559 112.68 93.6559 108.566C93.3395 102.555 93.0231 96.2266 92.7067 90.2149C92.7067 88.0001 92.3903 85.1524 90.8083 83.5704C87.9606 80.4064 82.2654 82.6212 80.3669 86.1016C78.4685 89.8985 79.1013 94.3281 79.7341 98.4414C81.3161 109.199 82.8982 119.957 84.4802 130.715C84.7966 131.98 84.7966 133.246 85.7458 134.195C86.3786 134.828 87.3278 135.144 88.277 135.461C100.933 138.941 113.906 142.422 126.562 145.586C131.308 148.117 137.003 149.066 142.066 147.484C142.698 147.168 143.331 147.168 143.648 146.535C143.964 146.218 143.964 145.902 143.964 145.269Z" fill="#EADDD0"/>
<path d="M126.878 146.218C126.878 146.535 126.562 146.851 126.562 146.851C126.245 146.851 125.929 146.851 125.929 146.851C112.64 144.32 99.0346 142.422 86.3785 137.359C85.4293 137.043 84.4801 136.41 83.5309 135.777C82.5816 134.828 82.2652 133.562 81.9488 132.297C77.8356 118.059 74.0387 103.504 74.3551 88.633C74.3551 85.4689 74.988 82.3049 76.8864 79.7737C79.1012 77.2424 82.8981 76.6096 86.0621 75.9768C88.2769 75.6604 90.8081 75.6604 92.3902 76.926C93.9722 78.1916 94.2886 80.7229 94.605 82.9377C95.5542 90.215 96.187 97.1759 97.1362 104.453C97.769 109.199 98.0854 113.945 98.7182 119.008C98.7182 119.957 99.0346 120.906 99.351 121.855C100.3 123.437 102.199 124.387 103.781 125.019C110.109 127.551 116.437 130.398 122.449 133.562C124.031 134.512 129.093 136.41 129.726 138.308C130.042 139.258 128.46 141.156 128.144 142.105C127.511 143.687 127.511 144.636 126.878 146.218Z" fill="#E8E8E8"/>
<path d="M78.7844 344.603C80.3664 345.553 78.1516 346.502 77.2024 346.502C75.6204 346.502 73.7219 346.502 72.1399 346.186C71.8235 346.186 71.1907 345.869 70.8743 345.869C70.5579 345.553 70.2415 345.553 70.2415 345.236C69.6087 344.604 68.3431 343.338 68.3431 342.705C68.0267 342.072 68.6595 341.439 68.9759 340.807C69.6087 339.541 71.1907 338.275 70.8743 336.693C74.6711 337.01 78.1516 336.061 81.3156 336.693C81.632 337.643 82.5812 338.592 81.9484 339.541C82.2648 338.908 91.1241 340.807 92.0734 341.123C93.6554 341.439 95.5538 341.756 97.1358 341.756C98.4014 341.756 100.933 341.439 101.882 342.389C102.198 342.705 102.198 343.338 102.198 343.654C102.198 343.971 102.198 344.287 102.198 344.603C101.882 345.236 101.249 345.553 100.616 345.869C93.6554 348.4 86.3781 344.603 78.7844 344.603Z" fill="#537082"/>
<path d="M102.515 165.203C101.882 163.621 100.616 162.988 99.0342 162.355C89.8585 158.875 79.4172 158.242 69.6087 158.558C64.5462 158.558 59.1673 158.558 54.1049 158.875C50.6244 158.875 43.3471 159.191 41.4487 162.988C39.2339 167.417 37.6519 175.96 38.6011 180.39C40.4995 188.3 39.8667 202.855 42.0815 212.98C41.4487 255.694 41.1323 298.092 41.1323 340.49C44.6128 340.49 48.0932 340.807 51.5736 340.807C52.2065 326.885 56.3197 312.963 59.8001 299.358C63.597 284.803 66.4446 270.249 68.6595 255.378C69.2923 282.905 70.2415 310.432 70.8743 337.959C74.3547 337.959 77.8352 337.959 81.3156 337.959C81.3156 324.037 85.1124 310.116 88.2765 296.51C95.5538 264.553 101.882 214.562 101.249 181.972C101.565 177.226 101.882 172.164 102.515 167.734C102.515 166.785 102.515 166.152 102.515 165.203Z" fill="#4D4D4D"/>
<path d="M48.7265 347.451C49.9921 348.4 48.0937 349.349 47.1445 349.349C45.5624 349.349 43.664 349.349 42.082 349.033C41.7656 349.033 41.1328 348.717 40.8164 348.4C40.5 348.084 40.5 348.084 40.1836 347.767C39.5508 347.135 38.2852 345.869 38.2852 345.236C38.2852 344.603 38.6016 343.971 38.918 343.338C39.8672 342.072 41.1328 340.807 41.1328 339.225C44.9296 339.541 48.4101 338.592 51.2577 339.541C51.5741 340.49 52.5233 341.439 51.8905 342.389C52.2069 341.756 61.0662 343.971 62.0154 344.287C63.5975 344.603 65.4959 344.92 67.0779 344.92C68.3435 344.92 70.8747 344.603 71.824 345.869C72.1404 346.185 72.1404 346.818 72.1404 347.135C72.1404 347.451 72.1404 347.767 72.1404 348.084C71.824 348.717 71.1911 349.033 70.5583 349.349C63.2811 351.248 56.3202 347.451 48.7265 347.451Z" fill="#537082"/>
<path d="M86.0622 13.9618C82.5817 16.4931 80.3669 20.6063 78.4685 24.4032C75.9372 29.1492 73.7224 34.2117 73.406 39.5905C73.0896 43.7038 74.0388 47.817 72.1404 51.2975C78.7849 53.8287 85.7457 56.6763 92.0738 59.8404C101.25 49.7155 107.894 37.0593 110.742 23.4539C110.742 23.4539 110.742 22.8211 110.742 22.5047C110.425 21.8719 110.109 21.5555 109.792 21.5555C104.097 17.7587 97.1363 15.5439 90.4918 13.329C89.859 13.0126 88.9098 13.0126 88.277 13.0126C87.3278 12.6962 86.695 13.329 86.0622 13.9618Z" fill="#EADDD0"/>
<path d="M101.882 156.66C101.565 149.383 101.249 142.422 101.249 135.461C101.249 119.324 100.616 103.188 99.3506 87.0511C99.0342 80.4066 98.4014 74.0785 97.7686 67.434C97.4522 64.9028 90.1749 62.3716 88.2765 61.7388C87.3273 61.4224 86.0616 61.106 85.1124 60.7896C84.1632 60.4732 83.214 60.1568 81.9484 59.524C76.8859 57.6255 71.8235 55.7271 66.761 53.8287C66.1282 53.5123 65.179 53.1959 64.5462 53.5123C63.9134 53.5123 63.2806 54.1451 62.9642 54.4615C53.472 62.0552 50.9408 74.3949 48.4096 85.4691C42.7143 110.465 39.2339 136.094 38.6011 162.039C38.6011 162.039 40.1831 166.152 45.2456 169C50.308 171.847 68.343 174.062 68.343 174.062L93.0225 171.531C93.3389 171.531 102.198 168.683 101.882 156.66Z" fill="#EFEFEF"/>
<path d="M134.788 136.094C135.104 134.512 135.421 132.93 136.37 131.664C137.636 130.398 139.218 130.398 140.8 130.715C142.382 131.031 143.964 131.348 145.546 131.98C146.179 132.297 147.761 132.93 148.077 133.562C148.71 134.512 148.077 135.777 147.761 137.043C145.546 144.636 144.28 150.965 141.749 157.925C141.433 158.875 141.116 159.824 140.167 160.457C139.534 160.773 139.218 160.773 138.585 160.773C135.737 160.457 127.827 159.507 129.093 154.445C131.308 148.117 133.522 142.105 134.788 136.094Z" fill="#3D3D3D"/>
<path d="M136.054 134.828C136.371 134.195 136.371 133.563 137.003 133.246C137.636 132.93 137.953 132.93 138.585 132.93C140.8 133.246 143.015 133.879 145.23 134.512C145.546 134.512 146.495 134.828 146.812 135.145C147.128 135.461 147.445 135.777 147.445 136.094C147.761 137.043 147.128 137.992 146.812 138.941C146.812 139.891 146.179 140.84 145.863 141.789C145.546 142.738 145.23 143.687 144.913 144.637C144.597 146.219 143.964 147.484 143.648 149.066C143.331 150.015 143.015 151.281 143.015 152.23C143.015 152.863 142.699 153.18 142.382 153.496C142.066 154.129 141.433 154.129 140.8 154.129C139.851 154.129 138.585 153.812 137.636 153.496C136.054 153.18 134.472 152.547 132.89 152.23C132.257 151.914 130.992 151.914 130.992 150.965C130.992 150.332 131.308 149.699 131.624 149.383C131.941 148.75 131.941 148.117 132.257 147.484C132.89 144.953 133.523 142.105 134.472 139.574C135.105 137.676 135.738 136.094 136.054 134.828Z" fill="white"/>
<path d="M144.28 132.929C143.964 132.929 143.964 132.929 143.647 132.613C143.331 132.613 142.698 132.297 142.382 132.297C142.065 132.297 141.749 132.297 141.749 132.297C141.749 132.297 141.749 132.297 141.749 132.613C142.065 132.929 144.28 133.562 144.28 133.246C144.597 132.929 144.28 132.929 144.28 132.929Z" fill="#5E625E"/>
<path d="M141.433 131.98C141.116 131.98 141.116 131.98 140.8 131.98C140.8 131.98 140.8 131.98 140.8 132.297C140.8 132.297 141.116 132.613 141.116 132.297C141.433 132.613 141.749 132.297 141.433 131.98Z" fill="#5E625E"/>
<path d="M135.737 155.078C135.42 155.078 135.42 155.394 135.104 155.71V156.027C135.104 156.343 135.104 156.66 135.42 156.976C135.737 157.293 136.053 157.293 136.37 157.293H136.686C136.686 157.293 137.002 157.293 137.002 156.976C137.319 156.66 137.635 156.343 137.635 155.71C137.002 155.394 136.37 154.761 135.737 155.078Z" fill="#EBEFEB"/>
<path d="M88.2769 36.4265C87.3277 35.1608 85.7457 33.8952 84.1637 34.2116C82.5816 34.528 81.6324 35.7937 81.316 37.3757C80.9996 38.9577 81.316 40.2233 81.316 41.8053C81.316 42.1217 81.316 42.4381 80.9996 42.7545C80.6832 43.0709 80.3668 43.0709 80.0504 43.0709C78.7848 43.0709 77.5192 44.0201 76.8864 44.9694C76.2536 45.9186 75.9372 46.8678 75.3044 47.5006C74.3551 48.4498 73.0895 48.7662 71.8239 49.0826C70.5583 49.399 69.2927 49.399 68.0271 49.399C67.0779 49.399 65.8122 49.399 65.1794 48.4498C65.1794 48.1334 64.863 48.1334 64.863 47.817C64.863 47.5006 65.1794 47.1842 65.4958 47.1842C66.4451 46.5514 67.0779 44.9694 67.0779 43.7037C67.0779 42.4381 67.0779 41.1725 67.7107 39.9069C68.0271 39.2741 68.6599 38.6413 68.9763 38.0085C72.7731 34.2116 77.5192 31.6804 82.5816 30.0984C83.8473 29.782 88.9097 27.8836 90.1753 28.8328C91.1246 30.0984 88.2769 34.8444 88.2769 36.4265Z" fill="#D7C68E"/>
<path d="M106.629 28.8327C107.262 29.1491 107.894 29.7819 108.211 30.4147C108.527 30.7311 108.527 31.364 108.844 31.6804C109.476 32.6296 110.426 33.2624 111.375 33.5788C111.375 32.6296 111.375 31.6804 111.375 30.4147C111.375 30.0983 111.375 29.7819 111.691 29.7819C112.008 29.4655 112.324 29.7819 112.64 29.4655C112.957 29.1491 112.957 28.8327 112.957 28.5163C112.957 27.2507 112.957 25.9851 112.64 24.7195C112.324 24.4031 112.324 23.7703 111.691 23.4539C111.375 23.1375 110.742 23.1375 110.109 23.1375C107.578 23.1375 102.832 23.4539 100.933 25.3523C99.3514 27.5671 105.363 28.1999 106.629 28.8327Z" fill="#D7C68E"/>
<path d="M43.3473 159.824C43.6637 162.039 44.2965 163.937 43.6637 166.152C43.3473 167.734 42.7145 169 41.7653 169.949C37.652 175.011 31.0076 176.594 24.6795 176.91C17.4022 177.543 8.8593 176.277 4.11325 170.582C0.949211 166.785 0 161.723 0 156.976C0 152.23 1.26562 147.484 2.53123 142.738C5.37886 131.348 8.5429 120.274 11.3905 108.883C11.7069 106.985 12.3397 105.086 13.6054 103.821C15.1874 101.922 17.7186 101.606 19.9334 101.289C24.3631 100.657 28.4763 100.657 32.906 101.606C36.3864 102.555 41.7653 104.77 43.3473 108.567C45.2457 112.68 43.9801 120.274 43.6637 124.703C43.0309 136.094 41.4489 148.117 43.3473 159.824Z" fill="#736357"/>
<path d="M50.3087 80.4064C54.1056 74.7111 59.168 69.3323 66.1289 66.4846C73.0898 63.637 82.2655 63.637 88.2772 67.7503C94.2889 71.8635 96.1873 78.508 97.1365 84.8361C98.7185 96.2266 97.4529 107.617 94.6053 119.008C93.3396 123.754 92.074 128.816 89.2264 133.246C86.0624 138.625 80.9999 143.054 75.9374 147.484C65.8125 155.711 54.422 163.621 40.5002 166.152C38.9182 166.468 37.3362 166.785 36.387 167.734C34.4886 169.632 36.387 172.48 39.2346 173.113C42.0822 173.746 44.9299 172.796 47.4611 171.847C60.4337 166.468 70.875 158.242 81.3163 150.015C84.7968 147.168 88.5936 144.32 90.8084 140.523C92.7068 137.359 93.3396 133.879 94.2889 130.715C97.1365 118.058 99.9841 105.719 100.933 93.0626C101.25 87.6837 101.25 82.3048 99.6677 77.2424C97.7693 72.1799 93.9725 67.4338 88.2772 64.9026C84.7967 63.3206 80.9999 62.6878 77.2031 62.6878C68.0274 62.3714 58.5352 65.219 51.5744 70.2815C48.7267 72.1799 46.1955 74.7111 45.2463 77.8752C44.2971 80.4064 44.9299 84.2032 47.7775 86.1017C48.4103 83.8868 49.3595 81.9884 50.3087 80.4064Z" fill="#736357"/>
<path d="M10.7574 86.7344C14.8706 81.6719 21.5151 77.5586 28.7924 77.2422C32.5892 76.9258 36.3861 77.875 39.8665 78.8243C42.3978 79.4571 44.929 80.4063 46.8274 82.3047C49.9914 84.8359 50.9407 88.9492 50.9407 92.4296C50.9407 96.2265 50.6243 100.34 49.3586 104.137C48.7258 105.719 48.093 106.984 47.1438 108.25C45.2454 109.832 42.3978 110.465 39.8665 110.465C29.7416 111.097 19.6167 109.515 10.441 106.035C4.74571 104.137 3.16369 103.82 4.74571 98.7577C6.01132 94.328 7.90974 90.2148 10.7574 86.7344Z" fill="#63564B"/>
<path d="M26.2613 146.218C27.5269 145.902 29.1089 145.586 30.0581 146.535C30.6909 147.168 30.6909 147.8 30.6909 148.433C31.6401 153.179 31.0073 158.558 28.7925 162.988C28.1597 164.57 27.2105 165.835 25.9449 167.101C23.4137 169.316 19.9332 169.949 16.7692 169.949C14.8708 169.949 12.9723 169.632 11.3903 168.683C8.85908 167.101 7.90987 163.621 7.90987 160.457C7.59346 157.609 7.90987 155.078 8.22627 152.23C8.54267 150.648 8.85908 146.218 10.4411 145.586C11.3903 145.269 13.2887 146.218 14.2379 146.218C15.5036 146.535 17.0856 146.535 18.3512 146.535C20.8824 147.168 23.7301 146.851 26.2613 146.218Z" fill="#63564B"/>
<path d="M7.59326 148.433C7.59326 148.75 7.59326 149.066 7.59326 149.066C7.59326 149.066 7.90966 149.066 8.22607 149.066C14.8705 149.383 21.1986 149.699 27.8431 150.015C29.1087 150.015 30.3743 150.015 31.3235 149.383C32.5892 148.433 32.5892 146.851 31.9564 145.586C31.3235 144.32 29.7415 143.687 28.4759 143.371C26.5775 143.055 25.3119 143.055 23.7299 143.055C19.933 143.371 15.8198 143.371 12.0229 143.371C11.0737 143.371 10.1245 143.055 9.17528 144.004C8.22607 144.953 7.59326 147.168 7.59326 148.433Z" fill="#63564B"/>
<path d="M30.691 120.906C31.0074 120.906 31.0074 120.906 31.3238 120.906C31.6402 121.223 31.6402 121.539 31.9566 121.856C32.273 123.754 32.273 125.652 31.9566 127.551C31.9566 127.867 31.9566 127.867 31.6402 128.184H31.3238C24.9957 128.184 18.6677 127.867 12.3396 127.551C12.3396 126.285 12.3396 124.703 12.656 123.438C13.2888 119.957 17.4021 120.906 20.2497 120.906C23.7301 121.223 27.2106 121.223 30.691 120.906Z" fill="#63564B"/>
<path d="M7.59419 115.844C7.59419 117.426 7.59419 119.008 7.59419 120.59C6.96139 125.02 4.43016 128.5 1.89893 131.98C2.84814 132.297 4.11375 132.93 5.06296 133.246C5.69577 131.664 6.32858 130.082 6.96139 128.816C7.59419 127.234 8.227 125.652 8.5434 124.387C9.17621 122.488 9.17621 120.273 9.17621 118.375C9.17621 115.844 11.0746 106.984 9.17621 105.402C7.27779 106.352 7.59419 113.629 7.59419 115.844Z" fill="#63564B"/>
<path d="M107.578 170.265C108.843 171.214 110.109 172.48 111.691 172.796C113.273 173.429 115.172 173.113 116.121 171.847C117.386 170.582 117.07 168.367 116.121 166.785C115.172 165.203 113.59 164.253 112.007 163.304C112.957 163.621 114.222 162.355 113.906 161.406C113.59 160.457 112.64 159.507 111.691 159.191C110.742 158.875 109.476 158.875 108.527 158.242C107.578 157.925 106.312 157.609 105.363 156.976C102.199 154.445 100.933 152.547 96.5037 148.433C95.2381 147.168 94.2889 145.902 93.0233 144.636C92.074 143.687 91.4412 142.738 90.492 142.105C89.2264 140.84 87.0116 140.84 85.4296 139.574C84.4804 138.625 83.5311 137.676 81.9491 138.625C79.7343 139.574 79.7343 143.371 80.9999 144.953C82.8983 148.117 86.3788 150.648 88.91 153.179C91.7576 156.027 94.6053 158.558 97.4529 161.406C100.933 164.57 104.414 167.417 107.578 170.265Z" fill="#EDD5BE"/>
<path d="M79.7341 125.652C79.1013 124.703 78.1521 124.07 77.8357 123.121C77.2029 121.856 77.2029 120.59 77.2029 119.324C77.2029 113.945 80.0505 108.567 82.2653 103.504C83.8473 100.34 85.4294 97.4925 87.0114 94.6448C88.277 92.7464 89.859 89.8988 90.1754 87.6839C90.4918 85.1527 91.1246 80.0903 90.8082 79.141C89.2262 74.395 85.4294 69.9653 80.0505 69.9653C78.4685 69.9653 73.0896 72.1802 71.824 73.1294C70.5584 74.395 68.3436 78.1918 66.7615 79.7739C66.1287 80.4067 66.1287 81.0395 65.8123 81.6723C65.1795 83.5707 64.5467 85.4691 63.5975 87.3675C62.6483 89.5824 62.0155 91.7972 61.3827 94.3284C60.7499 97.4925 60.1171 100.656 60.4335 103.821C60.4335 106.668 59.4843 110.781 59.8007 113.629C60.1171 116.477 59.8007 120.274 60.4335 123.121C60.7499 125.02 61.0663 127.234 61.6991 129.133C62.3319 131.031 63.5975 132.613 64.8631 133.879C70.5584 141.156 91.441 157.926 98.4019 163.937L105.046 156.344C99.0347 151.914 85.113 131.348 79.7341 125.652Z" fill="#E3E3E3"/>
<path d="M70.875 13.9617C68.9766 15.5437 66.4454 16.1765 64.2306 17.1257C62.0157 18.3913 59.8009 20.2898 60.4337 22.821C61.0665 25.985 64.8634 27.5671 64.8634 30.7311C64.8634 31.6803 64.2306 32.9459 64.2306 33.8951C63.9142 36.7428 67.0782 38.9576 69.9258 38.6412C72.7735 38.3248 75.3047 36.7428 77.5195 35.1607C86.6952 29.4655 97.453 26.3014 108.211 25.985C110.109 25.985 112.008 25.985 113.59 25.0358C115.172 24.403 116.437 22.5046 116.121 20.6062C115.488 18.0749 112.008 17.7585 110.426 15.5437C109.476 14.2781 109.476 13.0125 108.843 11.7469C107.894 9.53204 105.679 7.95002 103.465 6.368C99.035 3.52037 94.6053 0.672732 89.2265 0.0399245C84.4804 -0.276479 79.7343 1.30554 76.2539 4.15317C73.0899 7.31721 74.0391 11.1141 70.875 13.9617Z" fill="#D7C68E"/>
</svg>
