<svg width="235" height="291" viewBox="0 0 235 291" fill="none" xmlns="http://www.w3.org/2000/svg">
<path d="M95.1822 276.226C87.1191 277.075 79.056 277.923 72.6903 282.592C71.8416 283.44 70.9928 284.289 70.5684 285.138C70.1441 287.684 73.5391 288.533 76.0853 288.957C121.918 290.23 167.326 290.655 213.159 289.382C213.583 286.411 210.188 283.865 207.217 283.016C172.419 269.86 132.103 272.407 95.1822 276.226Z" fill="#99A2AD"/>
<path d="M91.2411 213.461C88.6948 219.402 89.5436 228.314 90.8167 235.953C91.6655 241.894 93.363 248.26 98.0311 251.655C100.577 253.777 103.972 254.626 107.367 255.474C122.221 259.294 138.347 258.445 152.776 254.201C155.746 253.352 158.717 252.079 161.263 250.382C165.083 247.411 167.204 242.743 168.902 238.075C171.024 231.709 176.116 217.281 169.751 213.886C164.234 210.915 145.986 214.734 139.62 214.734C134.527 214.734 129.435 214.734 124.342 213.461C118.401 212.188 112.884 209.217 107.367 208.369C98.0311 206.247 93.363 208.793 91.2411 213.461Z" fill="#2F3F47"/>
<path d="M127.737 263.962C127.737 263.538 127.737 263.113 127.737 262.264C123.493 259.294 115.43 260.143 110.762 261.84C105.669 263.538 105.669 266.508 105.669 271.601C105.669 274.571 106.094 277.966 108.215 279.664C109.913 280.937 112.459 281.361 114.581 281.361C116.703 281.361 118.825 281.786 120.522 281.786C121.795 281.786 123.493 281.786 124.766 280.937C126.039 280.088 126.039 278.391 126.039 277.118C126.888 272.874 127.312 268.63 127.737 263.962Z" fill="#2F3F47"/>
<path d="M131.557 263.962C131.557 263.538 131.557 263.113 131.557 262.264C135.8 259.294 143.864 260.143 148.532 261.84C153.624 263.538 153.624 266.508 153.624 271.601C153.624 274.571 153.2 277.966 151.078 279.664C149.38 280.937 146.834 281.361 144.712 281.361C142.59 281.361 140.469 281.786 138.771 281.786C137.498 281.786 135.8 281.786 134.527 280.937C133.254 280.088 133.254 278.391 133.254 277.118C132.405 272.874 131.981 268.63 131.557 263.962Z" fill="#2F3F47"/>
<path d="M24.6138 50.925C24.6138 51.7738 25.0382 53.0469 24.6138 53.8956C24.1894 54.7444 23.7651 55.1688 22.9163 56.0175C20.37 58.5638 17.8238 61.11 14.8532 63.2319C11.4582 62.8075 8.48752 61.9588 5.09251 60.6857C4.66814 60.2613 3.81938 60.2613 3.39501 59.8369C2.97063 59.4125 2.97063 58.9882 2.97063 58.5638C2.12188 53.0469 1.27313 47.53 0 42.0131C1.6975 40.74 3.39501 39.8912 5.51689 39.0425C6.36564 42.4375 7.21439 45.4081 7.63877 48.8031C8.48752 52.1981 9.76065 56.0175 12.7313 56.8663C14.4288 55.1688 16.5507 53.4713 18.2482 52.1981C18.6725 51.7738 19.0969 51.7738 19.0969 51.3494C19.0969 50.925 19.0969 50.5006 19.0969 49.6519C18.6725 46.2569 18.2482 42.8619 16.975 39.8912C18.6725 39.4669 19.9457 39.4669 21.6432 39.0425C23.7651 42.8619 24.1894 47.1056 24.6138 50.925Z" fill="#2F3F47"/>
<path d="M10.1848 63.656V64.0804C10.6092 66.2023 11.0336 67.8998 11.4579 70.0216C14.4286 69.1729 17.3992 68.3241 20.3698 67.051C19.9455 65.3535 19.5211 63.656 19.0967 61.9585C19.0967 61.5341 18.6723 61.1097 18.248 61.1097C17.8236 61.1097 17.8236 61.1097 17.3992 61.1097C14.8529 61.5341 12.7311 61.9585 10.1848 62.8072C10.6092 63.2316 10.1848 63.2316 10.1848 63.656Z" fill="#2F3F47"/>
<path d="M11.0333 71.7196C10.609 75.539 15.7015 81.9047 16.9746 84.8753C19.0965 88.6947 21.2184 92.9384 23.7646 96.3334C26.7353 99.7284 30.5546 102.699 34.7984 103.548C37.3446 103.972 39.8909 103.972 42.4372 103.548C50.0759 102.699 57.2903 99.7284 64.0803 95.4847C64.5047 95.0603 64.9291 94.6359 65.3535 94.2116C65.7778 93.7872 65.3535 92.9384 65.3535 92.5141C64.5047 89.9678 63.656 87.4215 62.3828 85.2997C60.2609 81.4803 61.5341 81.9047 58.1391 82.329C55.5928 82.7534 51.7734 85.2997 48.8028 86.1484C45.4078 86.9972 42.0128 87.4215 38.6178 87.8459C36.4959 88.2703 33.9496 88.2703 32.2521 86.9972C31.4034 86.1484 30.5546 85.2997 30.1303 84.4509C26.3109 78.5096 22.9159 72.5684 19.9452 66.2028C19.5209 64.9296 11.4577 69.5978 11.0333 71.2953C11.0333 71.2953 11.0333 71.7196 11.0333 71.7196Z" fill="#516770"/>
<g opacity="0.15">
<path opacity="0.15" d="M42.8618 101.426C41.1643 97.6064 40.7399 93.7871 40.3156 89.5433C40.3156 88.6946 39.0424 88.6946 39.0424 89.5433C38.1937 94.2114 39.0424 98.4552 40.7399 102.699C41.1643 104.396 43.2862 103.123 42.8618 101.426Z" fill="#272525"/>
<path opacity="0.15" d="M35.2231 101.85C33.9499 98.0309 34.3743 94.6359 35.6475 90.8165C35.6475 90.3921 35.2231 89.9677 34.7987 90.3921C33.5256 92.514 32.2524 93.7871 31.8281 96.3334C31.4037 98.4552 31.4037 100.577 32.2524 102.699C33.5256 104.397 35.6475 103.548 35.2231 101.85Z" fill="#272525"/>
</g>
<path d="M75.1146 67.9003C69.1734 70.871 67.9002 78.0853 67.4758 84.451C64.0808 123.918 65.354 163.809 71.2952 202.852C72.144 207.52 72.9927 212.613 76.8121 215.583C79.3584 217.705 82.329 218.129 85.2996 218.554C116.279 224.071 148.532 224.495 179.511 218.554C180.36 218.554 181.633 218.129 182.482 217.705C183.755 216.856 184.179 215.159 184.604 213.886C195.637 170.175 193.091 124.342 190.12 79.3585C190.12 77.661 189.696 76.3878 189.272 74.6903C188.423 72.9928 186.725 72.1441 185.028 70.871C175.267 65.7785 164.234 65.3541 153.2 65.3541C129.859 64.9297 106.518 64.9297 82.7534 65.7784C80.2071 66.6272 77.6609 66.6272 75.1146 67.9003Z" fill="#EAF1F2"/>
<path d="M91.2407 55.5933C116.703 60.6859 143.015 60.2615 168.477 54.3202C173.994 53.0471 179.511 51.3496 183.33 44.9839C189.696 34.3745 185.452 16.5508 177.813 8.91199C169.75 1.27322 159.99 0.424469 150.229 0.424469C134.951 9.27648e-05 119.674 -0.424283 104.821 2.54635C96.3332 4.24385 86.9969 8.06323 81.0557 17.3995C75.1144 27.1602 74.69 44.5596 82.3288 51.3496C84.875 53.8958 88.27 54.7446 91.2407 55.5933Z" fill="#EAF1F2"/>
<path d="M97.6072 266.084C118.826 267.781 140.469 267.781 161.688 265.659C166.356 265.235 171.024 264.811 173.995 262.689C179.087 259.294 175.692 253.777 169.327 251.23C162.961 248.684 154.474 248.684 146.835 248.684C134.103 248.684 121.797 248.26 109.065 249.533C101.851 249.957 94.2122 251.231 89.544 254.201C84.8759 257.172 84.4515 262.689 90.3928 265.235C92.5147 265.659 95.0609 265.659 97.6072 266.084Z" fill="#EAF1F2"/>
<path d="M105.669 42.862C122.644 44.9839 139.619 44.9839 156.594 42.4376C159.989 42.0133 163.809 41.1645 166.355 38.6182C170.599 33.9501 167.628 26.3113 162.536 22.9163C157.443 19.5213 150.653 19.5213 144.287 19.097C134.102 19.097 124.342 18.6726 114.157 19.9457C108.64 20.7945 102.274 22.0676 98.4549 26.3113C94.6355 30.5551 94.2111 38.1939 99.3036 41.1645C101.85 42.0133 103.547 42.4376 105.669 42.862Z" fill="#2F3F47"/>
<path d="M109.488 68.3245C107.367 68.3245 104.82 68.7489 103.971 70.4464C103.547 71.2952 103.547 72.5683 103.547 73.417C104.396 99.304 104.82 124.767 105.669 150.653C121.795 154.897 139.195 159.141 155.321 154.048C157.443 126.04 157.867 97.6065 157.018 69.1733C149.804 67.9001 143.014 67.9001 136.224 67.9001C127.312 68.3245 118.4 68.3245 109.488 68.3245Z" fill="#E2ECED"/>
<path d="M157.868 69.5979C157.868 69.1735 157.444 68.3248 157.019 68.3248C149.805 67.0516 142.166 67.0516 134.952 67.0516C126.464 67.0516 117.977 67.0516 109.489 67.476C103.972 67.476 101.85 70.0223 101.85 75.5392C102.275 84.0267 102.275 92.5142 102.699 100.577C103.123 117.552 103.548 134.103 103.972 151.078C103.972 151.502 104.397 152.351 104.821 152.351C121.372 156.595 138.347 160.839 155.322 155.746C155.746 155.746 156.17 154.897 156.17 154.473C158.717 126.04 159.141 97.6067 157.868 69.5979ZM153.624 153.2C137.922 157.444 122.22 153.624 106.943 149.805C106.518 136.225 106.094 122.645 105.67 109.489C105.67 102.699 105.245 95.4848 105.245 88.6948C105.245 85.2998 105.245 81.9048 104.821 78.5098C104.821 77.2367 104.821 75.5392 104.821 74.266C104.821 71.2954 106.943 70.4466 109.489 70.4466C117.128 70.4466 124.767 70.4466 131.981 70.4466C139.62 70.4466 147.683 70.0223 155.322 71.2954C156.17 98.0311 155.746 125.616 153.624 153.2Z" fill="#2F3F47"/>
<path opacity="0.2" d="M134.103 146.41C134.528 145.986 134.528 145.137 134.952 144.713C135.376 143.864 135.376 143.015 135.376 142.166C135.376 141.318 134.952 140.893 134.528 140.044C134.528 139.62 134.103 139.62 134.103 139.196C134.103 138.771 133.679 138.347 133.255 138.347C132.406 137.498 131.557 137.498 130.284 137.074C129.435 137.074 128.586 136.649 128.162 137.074C126.465 137.074 124.767 138.771 124.343 140.044C123.918 141.742 123.918 143.44 124.767 145.137C125.616 147.259 127.738 148.956 129.86 148.956C131.133 148.956 133.255 148.108 134.103 146.41Z" fill="#272525"/>
<path d="M132.829 146.41C133.254 145.986 133.254 145.137 133.678 144.713C134.103 143.864 134.103 143.015 134.103 142.166C134.103 141.318 133.678 140.893 133.254 140.044C133.254 139.62 132.829 139.62 132.829 139.196C132.829 138.771 132.405 138.347 131.981 138.347C131.132 137.498 130.283 137.498 129.01 137.074C128.161 137.074 127.313 136.649 126.888 137.074C125.191 137.074 123.493 138.771 123.069 140.044C122.644 141.742 122.644 143.439 123.493 145.137C124.342 147.259 126.464 148.956 128.586 148.956C129.859 148.532 131.981 147.683 132.829 146.41Z" fill="#83959E"/>
<path opacity="0.2" d="M129.435 143.439C129.86 143.015 129.86 142.59 129.86 141.742V141.317C129.86 140.893 129.435 140.893 129.435 140.893C128.587 140.468 127.738 140.468 126.889 140.893C126.04 141.317 125.616 142.166 126.04 143.015C126.465 143.439 126.889 143.863 127.738 144.288C128.162 144.288 129.011 144.288 129.435 143.439Z" fill="black"/>
<path opacity="0.2" d="M134.528 208.369C134.952 207.944 134.952 207.096 135.377 206.671C135.801 205.823 135.801 204.974 135.801 204.125C135.801 203.276 135.377 202.852 134.952 202.003C134.952 201.579 134.528 201.579 134.528 201.154C134.528 200.73 134.104 200.306 133.679 200.306C132.83 199.457 131.982 199.457 130.709 199.033C129.86 199.033 129.011 198.608 128.587 199.033C126.889 199.033 125.192 200.73 124.767 202.003C124.343 203.701 124.343 205.398 125.192 207.096C126.04 209.218 128.162 210.915 130.284 210.915C131.557 210.915 133.255 210.066 134.528 208.369Z" fill="#272525"/>
<path d="M133.254 208.369C133.679 207.944 133.679 207.096 134.103 206.671C134.528 205.822 134.528 204.974 134.528 204.125C134.528 203.276 134.103 202.852 133.679 202.003C133.679 201.579 133.254 201.579 133.254 201.154C133.254 200.73 132.83 200.306 132.406 200.306C131.557 199.457 130.708 199.457 129.435 199.032C128.586 199.032 127.738 198.608 127.313 199.032C125.616 199.032 123.918 200.73 123.494 202.003C123.069 203.701 123.069 205.398 123.918 207.096C124.767 209.217 126.889 210.915 129.011 210.915C130.284 210.491 131.981 209.642 133.254 208.369Z" fill="#83959E"/>
<path opacity="0.2" d="M129.86 205.398C130.284 204.974 130.284 204.549 130.284 203.7V203.276C130.284 202.852 129.86 202.852 129.86 202.852C129.011 202.427 128.163 202.427 127.314 202.852C126.465 203.276 126.041 204.125 126.465 204.974C126.889 205.398 127.314 205.822 128.163 206.247C128.587 206.247 129.436 206.247 129.86 205.398Z" fill="black"/>
<path d="M191.818 151.077C192.242 150.229 193.091 149.38 193.94 148.531C194.788 148.107 195.637 148.107 196.486 147.682C199.881 147.258 203.7 146.834 207.095 146.834C209.642 149.38 211.339 151.926 213.037 154.897C213.461 155.321 213.461 156.17 213.461 156.594C213.461 157.019 213.037 157.443 213.037 157.868C210.49 162.96 208.368 168.053 205.822 173.145C203.7 173.145 201.578 172.721 199.881 171.872C201.154 168.901 202.427 165.931 204.125 162.536C205.398 159.565 206.671 156.17 204.973 153.199C202.427 153.199 199.881 153.624 197.759 153.624C197.335 153.624 196.91 153.624 196.486 154.048C196.061 154.473 195.637 154.897 195.637 155.321C193.94 158.292 192.666 161.263 191.818 164.233C190.545 163.384 188.847 162.96 187.574 162.111C187.574 158.292 189.696 154.473 191.818 151.077Z" fill="#2F3F47"/>
<path d="M210.915 149.804C211.34 149.804 211.34 149.38 210.915 149.804C212.188 147.682 212.613 145.561 213.461 143.863C210.491 142.59 207.52 141.741 204.55 140.892C203.701 142.59 203.276 143.863 202.852 145.561C202.852 145.985 202.852 146.409 202.852 146.834L203.276 147.258C205.398 148.531 207.52 149.38 210.066 150.229C210.491 149.804 210.915 149.804 210.915 149.804Z" fill="#2F3F47"/>
<path d="M215.583 143.015C218.129 140.468 218.129 131.981 218.554 128.586C219.402 124.342 220.251 119.674 219.827 115.006C219.827 110.338 218.129 106.094 215.159 102.699C213.461 100.577 211.339 99.304 209.217 98.0309C202.427 94.2115 194.788 92.0896 187.15 91.2408C186.725 91.2408 185.877 91.2408 185.452 91.6652C185.028 92.0896 184.603 92.514 184.603 93.3627C183.755 95.909 182.906 98.4552 182.482 101.001C182.057 105.245 181.208 103.972 184.179 106.094C186.301 107.367 191.393 107.792 193.94 108.64C196.91 109.913 199.881 111.611 202.852 113.308C204.549 114.582 206.671 115.855 207.52 117.552C207.944 118.825 207.944 120.098 207.944 120.947C207.52 128.162 206.247 134.952 204.973 141.742C204.549 143.439 213.461 144.288 215.583 143.015C215.159 143.015 215.159 143.015 215.583 143.015Z" fill="#516770"/>
<g opacity="0.15">
<path opacity="0.15" d="M207.944 99.7282C207.096 103.972 204.974 107.367 202.852 110.762C202.427 111.611 203.276 112.035 203.7 111.611C207.096 108.64 209.217 104.396 210.491 100.153C210.915 98.8794 208.369 98.4551 207.944 99.7282Z" fill="#272525"/>
<path opacity="0.15" d="M213.885 103.972C212.188 107.791 210.066 109.913 206.671 112.459C206.246 112.884 206.671 113.733 207.095 113.308C209.217 112.459 211.339 112.035 213.036 110.338C214.734 108.64 216.007 106.943 216.431 104.821C217.28 103.548 214.734 102.699 213.885 103.972Z" fill="#272525"/>
</g>
<circle cx="115" cy="32" r="6" fill="#3F8AE0"/>
<circle cx="146" cy="31" r="6" fill="#3F8AE0"/>
</svg>
