<svg width="130" height="359" viewBox="0 0 130 359" fill="none" xmlns="http://www.w3.org/2000/svg">
<g clip-path="url(#clip0)">
<path d="M10.2494 352.959C8.21395 352.62 5.50005 351.941 5.16081 349.906C4.82158 347.87 7.19623 346.513 9.57089 346.174C12.2848 345.835 14.9987 345.835 17.7126 345.835C46.2085 346.853 75.0436 346.853 103.54 346.174C108.628 346.174 113.377 345.835 118.466 346.513C121.18 346.853 128.304 347.192 129.661 350.245C132.375 357.03 117.109 358.387 114.056 358.387C92.0055 358.387 69.9551 357.708 47.9047 356.012C35.3529 355.333 22.8011 354.316 10.2494 352.959Z" fill="#99A2AD"/>
<path d="M39.4231 96.8348C40.4408 97.174 41.4585 97.174 42.4762 97.174C54.0103 97.174 65.2051 94.7994 75.7215 90.0501C79.7923 88.0146 84.2024 84.9615 84.2024 80.5514C84.2024 79.8729 84.2024 78.8552 83.5239 78.1768C81.8277 75.4629 78.0961 75.8021 75.043 76.4806C64.8659 78.8552 54.6888 81.5691 45.1901 84.9615C44.8509 83.9438 44.1724 83.2653 43.8332 82.5868C37.3877 73.7667 31.9599 63.5896 24.4967 55.4479C23.1397 54.0909 21.7828 52.734 20.0866 52.3947C18.3904 52.0555 16.0157 52.734 15.3373 54.4302C14.6588 55.7871 15.3373 57.4833 16.0157 58.8402C19.0689 64.9465 21.7828 71.0528 24.8359 77.1591C27.5498 82.9261 30.6029 88.6931 35.3522 92.7639C36.37 94.4601 37.3877 96.1563 39.4231 96.8348Z" fill="#F2E7D6"/>
<path d="M65.5446 140.935C67.9192 147.72 67.9192 155.523 65.8838 162.307C65.5446 162.986 65.5446 163.664 65.5446 164.343C65.5446 165.7 66.9015 166.718 67.9192 167.057C73.6863 170.11 80.1318 170.449 86.5773 170.449C96.7544 170.449 107.271 169.771 117.448 168.753C118.466 167.396 117.787 165.021 117.448 163.325C115.752 157.897 117.109 151.791 117.448 146.363C117.448 145.685 117.448 145.006 117.109 144.328C116.769 143.649 116.43 143.31 115.752 143.31C108.628 138.9 100.147 136.186 91.6658 136.186C88.2735 136.186 84.8811 136.525 81.4887 137.204C76.4002 137.882 70.9724 139.239 65.5446 140.935Z" fill="#F2E7D6"/>
<path d="M85.5595 342.442C80.8102 342.103 76.4001 342.103 71.6508 343.121C68.2584 345.835 64.1876 347.87 60.1167 349.566C59.099 349.906 57.7421 350.584 56.7243 351.602C55.7066 352.619 55.3674 353.976 56.3851 354.994C57.0636 356.012 58.4205 356.012 59.4382 356.012C67.9192 356.012 76.4001 355.333 84.881 353.976C85.2203 353.976 85.8987 353.637 86.238 353.298C86.5772 352.959 86.5772 352.62 86.9164 352.28C87.9342 348.549 87.5949 345.156 85.5595 342.442Z" fill="#333333"/>
<path d="M125.25 339.389C121.179 339.729 117.109 340.746 113.038 342.442C110.324 345.496 107.271 347.87 104.218 350.245C103.2 350.923 102.182 351.602 101.504 352.62C100.825 353.637 100.825 354.994 101.843 355.673C102.521 356.351 103.878 356.012 104.896 356.012C112.359 354.655 119.823 352.62 126.947 349.566C127.286 349.566 127.964 349.227 127.964 348.888C128.303 348.549 128.303 348.209 128.303 347.87C128.303 344.817 127.286 341.764 125.25 339.389Z" fill="#333333"/>
<path d="M121.518 259.329C120.161 234.226 122.536 208.444 122.536 183.34C123.214 174.52 122.197 165.7 119.143 157.219C118.804 156.54 118.804 156.201 118.465 155.862C117.447 154.505 115.412 155.183 113.716 155.862C98.7893 161.968 80.8097 160.611 67.2402 151.791C64.5263 155.862 63.8479 160.95 63.1694 166.039C62.1517 173.841 60.7947 181.983 60.4555 189.786C60.4555 191.482 60.4555 193.178 60.4555 194.874C60.7947 204.712 62.4909 214.55 64.1871 224.388C65.2048 230.833 65.8833 237.279 66.2225 243.724C66.2225 249.152 65.544 253.901 66.5617 258.99C68.9364 271.542 68.9364 285.45 69.9541 298.681C71.3111 312.589 72.668 326.498 73.6857 340.407C73.6857 341.085 73.6857 341.425 73.6857 342.103C74.3642 342.442 85.2198 344.817 85.2198 342.103C86.2375 314.964 86.916 287.825 87.9337 260.686C88.2729 249.152 88.6122 237.618 91.6653 226.762C93.0222 226.762 94.04 227.102 95.3969 227.102C101.842 263.061 108.288 299.02 114.733 334.979C115.412 338.032 116.09 341.424 118.126 343.46C120.161 345.495 124.232 344.817 124.571 341.764C122.875 314.286 122.536 286.807 121.518 259.329Z" fill="#EBEFEB"/>
<path d="M75.3823 55.1085C77.0785 56.1262 79.1139 57.1439 81.1493 57.4832C89.291 60.1971 99.4681 58.8401 106.253 54.4301C111.681 55.787 115.751 59.5186 117.787 63.9287C119.822 68.3388 119.822 72.7489 120.162 77.1589C121.858 97.8524 123.554 118.885 124.911 139.579C124.911 140.596 124.911 141.614 124.572 142.632C123.215 144.667 120.162 145.006 117.448 145.006C99.1289 145.685 80.4708 145.346 62.152 143.989C61.4736 143.989 60.4558 143.989 60.1166 143.649C58.7597 142.971 58.4204 141.614 58.4204 140.257C58.0812 120.581 59.4381 100.566 62.4913 80.8905C63.509 73.7666 64.8659 66.3034 68.9368 59.8578C69.6152 58.5009 70.633 57.144 72.3291 56.4655C73.3469 55.4478 74.0253 54.0908 75.3823 55.1085Z" fill="#6D9DBF"/>
<path d="M108.288 26.6127C107.949 24.238 107.609 21.8634 106.931 19.4887C104.556 11.6862 95.0577 0.152191 85.5591 4.56227C83.1844 5.57998 81.4882 7.27617 79.792 8.97235C78.0959 10.6685 76.3997 12.3647 75.0427 14.4001C72.3288 18.1318 70.6326 23.2203 70.6326 27.6304C70.6326 32.0405 72.3288 36.4506 73.6858 40.5214C75.7212 45.9492 78.4351 51.377 83.5237 54.0909C90.3084 57.4833 99.1286 54.4301 103.878 48.3239C108.627 42.2176 108.966 34.0759 108.288 26.6127Z" fill="#F2E7D6"/>
<path d="M32.978 73.0884C33.3172 73.7668 33.3172 74.4453 32.978 75.463C32.6388 76.1415 31.2818 76.82 30.2641 77.1592C27.5502 78.1769 24.4971 79.5339 21.7832 80.5516C20.087 77.1592 19.0693 73.0884 18.0516 69.3568C16.6946 65.2859 15.6769 61.5543 14.32 57.4835C13.3023 53.7519 12.2845 50.0202 11.2668 46.2886C10.2491 42.8963 8.89217 39.1647 8.89217 35.4331C10.2491 34.7546 12.963 35.7723 14.32 35.7723C16.3554 36.1115 18.3908 36.4508 20.7655 36.4508C21.4439 36.4508 21.7832 36.4508 22.4616 36.79C23.1401 37.1292 23.1401 37.8077 23.4794 38.4862C26.5325 49.681 29.9249 61.2151 32.978 73.0884Z" fill="#666666"/>
<path d="M30.9422 71.7315C30.9422 72.41 31.2815 73.0885 30.9422 73.7669C30.603 74.4454 29.9245 74.7846 29.2461 75.1239C27.5499 75.8023 25.5145 76.8201 23.479 77.4985C22.1221 74.4454 21.4436 71.053 20.4259 67.6607C19.4082 64.2683 18.3905 60.8759 17.3728 57.1443C16.3551 53.7519 15.6766 50.3596 14.6589 46.9672C13.9804 43.9141 12.6235 40.5217 12.2842 37.1293C13.3019 36.7901 15.3374 37.4686 16.0158 37.8078C17.3728 38.147 19.069 38.4863 20.4259 38.8255C20.7651 38.8255 21.1044 39.1647 21.4436 39.1647C21.7829 39.504 22.1221 40.1825 22.1221 40.5217C25.5145 51.038 28.2284 61.2152 30.9422 71.7315Z" fill="#F2F2F2"/>
<path opacity="0.56" d="M23.1404 48.3242C20.7658 49.0027 18.0519 49.0027 15.6772 48.3242C17.3734 56.1267 19.4088 63.9291 21.7835 71.3923C24.1581 70.0354 26.5328 68.6784 28.9075 67.3215C27.8898 60.876 26.1936 54.7697 23.8189 48.6635C23.8189 48.3242 23.8189 48.3242 23.4797 48.3242C23.8189 48.3242 23.4797 48.3242 23.1404 48.3242Z" fill="#FBB03B"/>
<path d="M23.4782 54.7697C23.4782 54.4305 23.139 53.752 22.7998 53.0735C22.4605 52.7343 22.4605 52.395 22.1213 52.0558C21.7821 51.7166 21.7821 51.3773 21.7821 51.3773C21.7821 51.3773 22.1213 51.3773 22.4605 51.7166C22.7998 52.0558 22.7998 52.395 23.139 52.395C23.4782 52.7343 23.4783 53.0735 23.8175 53.0735V52.7343C23.8175 52.7343 23.8175 52.7343 24.1567 52.7343C24.1567 52.7343 24.1567 52.7343 24.496 53.0735C24.8352 53.4128 24.8352 53.752 24.8352 53.752C24.8352 54.0912 24.8352 54.0912 24.496 54.0912C24.496 54.0912 24.496 54.4305 24.496 54.7697C24.496 55.1089 24.8352 55.1089 25.1744 55.1089C25.1744 55.1089 25.5137 55.1089 25.5137 54.7697V54.4305V54.0912L25.8529 54.4305V54.7697C25.8529 55.1089 26.1921 55.4482 26.1921 55.7874C26.1921 55.7874 25.8529 56.1266 25.8529 55.7874C25.5137 55.7874 25.5137 55.7874 25.1744 55.7874C24.8352 55.7874 24.8352 56.1267 25.1744 56.4659C24.8352 56.4659 24.1567 56.4659 23.4782 56.4659C23.4782 55.7874 22.7998 55.1089 22.1213 54.7697C21.1036 54.0912 19.7466 53.752 18.3897 52.7343C16.6935 51.3773 16.3543 50.0204 17.7112 50.0204C18.0505 50.0204 18.3897 50.0204 19.0682 50.3596C20.0859 50.6989 21.1036 51.7166 21.4428 52.395C21.7821 53.0735 22.1213 53.4128 22.7998 54.0912C22.7998 54.0912 23.139 54.4305 23.4782 54.4305C23.4782 55.4482 23.4782 55.1089 23.4782 54.7697Z" fill="#8CC674"/>
<path d="M26.5317 61.5546C26.5317 61.5546 26.5317 61.2154 26.5317 61.5546C26.1925 59.8584 26.1925 58.5015 25.8533 57.1445C24.8355 56.8053 23.1394 56.4661 19.4078 56.1268C20.4255 59.18 21.4432 62.5723 22.8001 65.6255C24.8356 63.59 25.8533 62.5723 26.5317 61.5546Z" fill="#8EABE2"/>
<path d="M25.5143 55.1092C25.5143 54.7699 25.175 54.7699 25.175 54.4307C25.175 54.4307 25.1751 54.0914 25.5143 54.4307C25.5143 54.7699 25.5143 54.7699 25.5143 55.1092C25.5143 54.7699 25.5143 54.7699 25.5143 55.1092C25.8535 54.7699 25.8535 54.7699 25.8535 55.1092C25.8535 55.1092 25.8535 55.1092 25.5143 55.1092C25.8535 55.1092 25.8535 55.1092 25.8535 55.1092C25.8535 55.1092 25.8535 55.1092 25.8535 55.4484C25.8535 55.4484 25.8535 55.4484 25.5143 55.1092C25.5143 55.4484 25.5143 55.4484 25.5143 55.1092Z" fill="#FF8CAA"/>
<path d="M22.1221 56.8053C22.1221 56.4661 21.7828 56.4661 21.7828 56.8053C21.7828 58.1623 22.122 59.8585 22.8005 61.5546C22.8005 61.8939 23.479 61.5546 23.479 61.2154C22.8005 59.5192 22.4613 58.1623 22.1221 56.8053Z" fill="#A1B5D6"/>
<path d="M23.8174 57.1443C23.8174 57.1443 23.4781 56.8051 23.8174 57.1443C23.8174 58.162 23.8174 59.1797 24.1566 60.1974C24.1566 60.5367 24.4958 60.1974 24.4958 60.1974C24.1566 59.1797 24.1566 58.162 23.8174 57.1443Z" fill="#A1B5D6"/>
<path d="M24.8354 57.1443C24.8354 57.8228 25.1747 58.8405 25.1747 59.8582C25.1747 60.1974 25.5139 59.8582 25.5139 59.8582C25.5139 58.8405 25.1747 58.162 24.8354 57.1443Z" fill="#A1B5D6"/>
<path d="M25.5137 57.4837C25.5137 58.1622 25.8529 58.8406 25.8529 59.8583C25.8529 60.1976 26.1921 59.8583 26.1921 59.8583C25.8529 58.8406 25.8529 58.1622 25.5137 57.4837C25.5137 57.1444 25.5137 57.1444 25.5137 57.4837Z" fill="#A1B5D6"/>
<path d="M13.9808 20.5064C13.6416 22.2026 13.3023 23.8988 12.9631 25.595C12.9631 26.2735 13.9808 26.6127 13.9808 25.9342C14.3201 24.238 14.6593 22.5418 14.9985 20.8457C14.9985 20.1672 13.9808 19.8279 13.9808 20.5064Z" fill="#4D4D4D"/>
<path d="M9.57007 23.5594C9.57007 23.2202 9.23083 22.8809 9.23083 22.2025C9.23083 21.8632 9.23083 21.1848 8.89159 20.8455C8.89159 20.1671 7.87387 20.1671 7.87387 20.8455C7.87387 21.1848 7.87387 21.8632 7.87387 22.2025V22.5417C7.87387 22.8809 8.21311 23.2202 8.21311 23.8987C8.89158 24.5771 9.90931 24.2379 9.57007 23.5594Z" fill="#4D4D4D"/>
<path d="M6.85674 25.9343C5.16056 25.2558 3.12513 25.2558 1.08971 25.595C0.411238 25.595 0.411238 26.6127 1.08971 26.6127C3.12513 26.6127 4.82131 26.6127 6.51749 26.952C7.19597 27.2912 7.53521 26.2735 6.85674 25.9343Z" fill="#4D4D4D"/>
<path d="M106.931 80.5515C106.253 79.8731 105.574 79.5338 104.896 79.5338C102.182 78.5161 99.4679 81.5692 97.7717 84.2831C92.3439 93.1033 86.9161 102.263 82.5061 111.422C81.8276 111.083 80.8099 110.744 79.7922 110.744C68.9366 109.047 59.4379 108.03 47.5646 106.673C47.2254 106.673 46.5469 106.673 46.2077 106.334C43.4938 105.316 40.4407 103.62 38.7445 102.263C38.4052 101.923 37.7268 101.584 37.0483 101.245C36.3698 100.906 35.6914 100.906 35.3521 101.245C34.6736 101.584 34.6736 102.602 35.0129 102.941C33.6559 102.602 32.299 101.923 30.6028 102.263C29.2458 102.263 27.5497 103.28 27.2104 104.637C26.532 106.673 27.8889 108.369 29.5851 109.726C32.9775 112.44 39.0837 114.136 43.833 114.136C46.2077 115.154 48.5824 115.832 50.2785 116.171C57.0633 118.207 64.1873 120.242 70.972 122.617C74.3644 123.635 77.7567 124.652 81.1491 124.652C83.1845 124.652 84.8807 124.313 86.5769 123.295C97.0932 118.885 104.217 102.602 107.61 93.4425C109.306 89.0325 110.323 83.6047 106.931 80.5515Z" fill="#F2E7D6"/>
<path d="M116.769 172.145C116.43 171.806 115.752 171.806 116.091 172.485C116.43 173.502 116.769 175.198 117.109 176.555C117.109 177.234 118.126 177.234 118.126 176.555C117.787 175.198 117.448 173.502 116.769 172.145Z" fill="#CED1CE"/>
<path d="M119.144 188.768C119.144 188.089 118.126 188.089 118.466 188.768C118.466 189.786 118.805 190.803 118.805 192.16C118.805 192.839 119.823 192.839 119.823 192.16C119.483 190.803 119.144 189.786 119.144 188.768Z" fill="#CED1CE"/>
<path d="M119.144 206.408C119.144 205.73 118.126 205.73 118.126 206.408C118.126 207.426 118.126 208.783 118.126 209.801C118.126 210.479 119.144 210.479 119.144 209.801C119.144 208.783 119.144 207.426 119.144 206.408Z" fill="#CED1CE"/>
<path d="M119.483 226.424C119.483 225.745 118.465 225.745 118.465 226.424C118.465 227.78 118.465 228.798 118.465 230.155C118.465 230.834 119.483 230.834 119.483 230.155C119.483 228.798 119.483 227.441 119.483 226.424Z" fill="#CED1CE"/>
<path d="M118.466 241.689C118.466 241.35 117.787 241.01 117.448 241.689C117.109 243.385 117.109 244.742 117.448 246.438C117.448 247.117 118.466 247.117 118.466 246.438C118.466 244.742 118.466 243.385 118.466 241.689Z" fill="#CED1CE"/>
<path d="M118.466 260.686C118.466 260.008 117.787 260.008 117.448 260.686C117.109 262.722 117.109 264.418 117.448 266.453C117.448 267.132 118.466 267.132 118.466 266.453C118.466 264.418 118.466 262.383 118.466 260.686Z" fill="#CED1CE"/>
<path d="M119.144 278.666C119.144 277.987 118.126 277.987 118.126 278.666C118.126 280.362 118.465 282.058 118.465 283.754C118.465 284.433 119.483 284.433 119.483 283.754C119.144 282.397 119.144 280.362 119.144 278.666Z" fill="#CED1CE"/>
<path d="M120.501 294.949C120.501 294.271 119.483 294.271 119.483 294.949C119.483 296.985 119.483 298.681 119.822 300.716C119.822 301.395 120.84 301.056 120.84 300.377C120.501 298.681 120.162 296.645 120.501 294.949Z" fill="#CED1CE"/>
<path d="M120.84 315.643C120.84 314.964 119.822 314.964 119.822 315.643C119.822 316.66 120.161 317.678 120.161 318.696C120.161 319.374 121.179 319.374 121.179 318.696C121.179 317.678 120.84 316.66 120.84 315.643Z" fill="#CED1CE"/>
<path d="M122.197 331.587C121.858 330.569 121.519 329.551 121.858 328.534C121.858 327.855 120.84 327.516 120.84 328.194C120.501 329.551 120.84 330.908 121.18 332.265C121.519 332.265 122.537 331.926 122.197 331.587Z" fill="#CED1CE"/>
<path d="M75.3822 337.354C75.043 336.675 74.3645 337.015 74.3645 337.693C74.7037 338.372 74.7037 339.05 74.7037 340.068C74.7037 340.746 75.7214 340.746 75.7214 340.068C75.7214 339.05 75.3822 338.372 75.3822 337.354Z" fill="#CED1CE"/>
<path d="M75.3819 324.123C75.3819 323.445 74.3642 323.445 74.3642 324.123C74.3642 325.141 74.7035 326.159 74.7035 327.177C74.7035 327.855 75.7212 327.855 75.3819 327.177C75.7212 326.159 75.3819 325.141 75.3819 324.123Z" fill="#CED1CE"/>
<path d="M74.0247 306.144C73.6855 304.787 73.3463 303.769 73.3463 302.412C73.3463 301.734 72.3286 301.734 72.3286 302.412C72.3286 303.769 72.6678 305.126 73.007 306.483C73.3463 306.822 74.364 306.822 74.0247 306.144Z" fill="#CED1CE"/>
<path d="M71.9899 284.433C71.9899 283.755 70.9721 284.094 70.9721 284.772C71.3114 285.79 71.3114 286.468 71.3114 287.486C71.3114 288.165 72.3291 288.165 72.3291 287.486C72.3291 286.129 71.9899 285.451 71.9899 284.433Z" fill="#CED1CE"/>
<path d="M70.2936 267.471C70.2936 268.828 70.2936 270.524 70.2936 271.881C70.2936 272.559 71.3113 272.559 71.3113 271.881C71.3113 270.524 71.3113 268.828 71.3113 267.471C71.3113 267.132 70.2936 267.132 70.2936 267.471Z" fill="#CED1CE"/>
<path d="M71.3116 252.884C71.3116 252.205 70.2939 252.205 70.2939 252.884C70.2939 254.58 70.2939 255.937 70.6332 257.633C70.6332 258.312 71.6509 257.972 71.6509 257.294C70.9724 255.937 70.9724 254.58 71.3116 252.884Z" fill="#CED1CE"/>
<path d="M68.9371 238.975C68.9371 238.297 67.9194 238.636 67.9194 239.314C68.2587 240.671 68.2587 242.028 68.2587 243.046C68.2587 243.725 69.2764 243.725 69.2764 243.046C69.2764 241.689 68.9371 240.332 68.9371 238.975Z" fill="#CED1CE"/>
<path d="M68.5975 222.352C68.5975 221.674 67.5798 221.674 67.5798 222.352C67.5798 224.049 67.5798 225.406 67.919 227.102C67.919 227.78 68.9368 227.441 68.5975 226.763C68.2583 225.406 68.2583 224.049 68.5975 222.352Z" fill="#CED1CE"/>
<path d="M65.2049 203.694C65.2049 205.391 65.2049 206.748 65.2049 208.444C65.2049 209.122 66.2227 209.122 66.2227 208.444C66.2227 206.748 66.2227 205.391 66.2227 203.694C65.8834 203.016 65.2049 203.016 65.2049 203.694Z" fill="#CED1CE"/>
<path d="M64.5267 186.054C64.5267 187.75 64.5267 189.447 64.5267 191.143C64.5267 191.821 65.5444 191.821 65.5444 191.143C65.5444 189.447 65.5444 187.75 65.5444 186.054C65.5444 185.376 64.5267 185.376 64.5267 186.054Z" fill="#CED1CE"/>
<path d="M65.8834 166.378C65.2049 167.396 64.8657 168.753 64.8657 170.11C64.8657 170.788 65.8834 170.788 65.8834 170.11C65.8834 169.092 66.2226 167.735 66.5618 166.718C66.9011 166.039 66.2226 165.7 65.8834 166.378Z" fill="#CED1CE"/>
<path d="M68.5978 159.594C67.9194 159.594 67.9194 160.611 68.5978 160.611C69.2763 160.611 69.2763 159.594 68.5978 159.594Z" fill="#CED1CE"/>
<path d="M94.3796 24.2381C95.7365 26.952 96.415 30.0052 96.7542 33.0583C97.4327 33.0583 97.7719 31.7014 98.4504 31.3621C99.4681 30.3444 101.164 31.7014 100.825 33.0583C100.825 34.4153 99.8074 35.7722 99.4681 37.1291C98.4504 40.1823 99.8074 43.5747 99.1289 46.6278C98.7896 47.6455 98.4504 48.324 98.1112 49.3417C97.0935 52.3948 97.7719 55.448 96.7542 58.5011C95.7365 61.215 93.3618 63.5896 93.0226 66.6428C101.164 66.982 109.306 66.982 117.787 67.3213C118.465 67.3213 119.483 67.3213 119.822 66.6428C120.162 66.3035 120.162 65.6251 120.162 64.9466C120.84 53.0733 119.822 40.8608 117.448 28.9875C116.43 23.2204 114.734 17.4534 112.02 12.3648C109.306 7.27629 104.896 2.86621 99.4681 1.17002C92.6834 -1.20464 85.2202 0.830785 78.7747 4.22316C74.0253 6.93705 69.276 10.6687 68.2583 16.0965C67.9191 18.1319 68.2583 20.5065 69.9545 21.8635C70.9722 22.542 71.9899 22.8812 73.0076 22.8812C77.0785 23.5597 80.8101 22.542 84.8809 21.8635C88.6125 21.185 90.3087 24.2381 91.6657 27.2913C92.6834 26.2736 93.7011 25.2559 94.3796 24.2381Z" fill="#AA4A4D"/>
</g>
<defs>
<clipPath id="clip0">
<rect width="129.249" height="357.895" fill="white" transform="matrix(-1 0 0 1 130 0.1521)"/>
</clipPath>
</defs>
</svg>
